<?xml version="1.0" encoding="UTF-8"?>
<svg id="Layer_1" xmlns="http://www.w3.org/2000/svg" version="1.1" viewBox="0 0 1200 1000">
  <!-- Generator: Adobe Illustrator 29.8.9, SVG Export Plug-In . SVG Version: 2.1.1 Build 1)  -->
  <defs>
    <style>
      .st0 {
        fill: #1a1a1a;
      }
    </style>
  </defs>
  <path class="st0" d="M529.6,455.5l-3.8-9.2-3.8,9.2h7.7M512.4,463.2l9.7-21.8c.7-1.5,1.9-2.4,3.6-2.4h.4c1.7,0,2.8.9,3.5,2.4l9.7,21.8c.2.4.3.8.3,1.2,0,1.6-1.3,2.9-2.9,2.9s-2.4-.8-2.9-2.1l-1.9-4.4h-12.2l-1.9,4.6c-.5,1.2-1.5,1.9-2.8,1.9s-2.8-1.3-2.8-2.8.2-.9.4-1.3M543.8,442.3c0-1.7,1.3-3.1,3.1-3.1h.7c1.3,0,2.2.7,2.8,1.6l7.4,12,7.4-12c.6-1,1.5-1.5,2.7-1.5h.7c1.7,0,3.1,1.3,3.1,3.1v22c0,1.7-1.3,3.1-3.1,3.1s-3-1.4-3-3.1v-13.8l-5.3,8.2c-.6.9-1.4,1.5-2.5,1.5s-1.9-.6-2.5-1.5l-5.3-8.1v13.8c0,1.7-1.3,3-3,3s-3-1.3-3-3v-22.1ZM577.8,464v-21.6c0-1.7,1.3-3,3-3h15.4c1.5,0,2.7,1.2,2.7,2.7s-1.2,2.7-2.7,2.7h-12.4v5.6h10.6c1.5,0,2.7,1.2,2.7,2.7s-1.2,2.7-2.7,2.7h-10.6v5.8h12.6c1.5,0,2.7,1.2,2.7,2.7s-1.2,2.7-2.7,2.7h-15.6c-1.7,0-3-1.3-3-3.1M616.4,452.8c3,0,4.7-1.6,4.7-3.9h0c0-2.7-1.8-4-4.8-4h-6.1v8h6.2ZM604.1,442.4c0-1.7,1.3-3.1,3.1-3.1h9.6c3.5,0,6.3,1,8.1,2.8s2.4,3.7,2.4,6.3h0c0,4.4-2.2,7.1-5.5,8.5l4.2,5.2c.6.8,1,1.4,1,2.3,0,1.7-1.4,2.8-2.9,2.8s-2.3-.7-3-1.6l-5.9-7.5h-4.9v6.1c0,1.7-1.3,3.1-3.1,3.1s-3.1-1.3-3.1-3.1v-21.9ZM633.2,442.2c0-1.7,1.3-3.1,3.1-3.1s3.1,1.3,3.1,3.1v22.1c0,1.7-1.3,3-3.1,3s-3.1-1.3-3.1-3v-22.1ZM644.2,453.3h0c0-8,5.9-14.4,14.5-14.4s7,1.1,9.3,2.8c.6.5,1.2,1.3,1.2,2.4,0,1.7-1.3,3-3,3s-1.4-.3-1.8-.6c-1.7-1.3-3.5-2-5.7-2-4.7,0-8,3.9-8,8.6h0c0,4.8,3.3,8.8,8,8.8s4.3-.8,6-2.2c.5-.4,1.1-.7,1.8-.7,1.5,0,2.9,1.3,2.9,2.8s-.5,1.7-1,2.2c-2.5,2.2-5.4,3.5-9.9,3.5-8.2,0-14.2-6.3-14.2-14.3M689.9,455.5l-3.8-9.2-3.8,9.2h7.7ZM672.7,463.2l9.7-21.8c.7-1.5,1.9-2.4,3.6-2.4h.4c1.7,0,2.9.9,3.5,2.4l9.7,21.8c.2.4.3.8.3,1.2,0,1.6-1.3,2.9-2.9,2.9s-2.4-.8-2.9-2.1l-1.9-4.4h-12.2l-1.9,4.6c-.5,1.2-1.6,1.9-2.8,1.9s-2.8-1.3-2.8-2.8.2-.9.4-1.3M704,442.3c0-1.7,1.3-3.1,3.1-3.1h.6c1.5,0,2.3.7,3.2,1.8l11.8,15.5v-14.3c0-1.7,1.3-3,3-3s3,1.3,3,3v22.1c0,1.7-1.3,3.1-3.1,3.1h-.2c-1.5,0-2.3-.7-3.2-1.8l-12.2-16v14.9c0,1.7-1.3,3-3,3s-3-1.3-3-3v-22.1ZM524.9,490.6c3,0,4.8-1.8,4.8-4.2h0c0-2.8-1.9-4.3-5-4.3h-4.7v8.5h4.8ZM514,479.7c0-1.7,1.3-3.1,3.1-3.1h8.3c6.6,0,10.6,3.9,10.6,9.6h0c0,6.5-5,9.8-11.2,9.8h-4.6v5.5c0,1.7-1.3,3.1-3.1,3.1s-3.1-1.3-3.1-3.1v-21.9ZM554.1,492.8l-3.8-9.2-3.8,9.2h7.7ZM537,500.5l9.7-21.8c.7-1.5,1.9-2.4,3.6-2.4h.4c1.7,0,2.9.9,3.5,2.4l9.7,21.8c.2.4.3.8.3,1.2,0,1.6-1.3,2.9-2.9,2.9s-2.4-.8-2.9-2.1l-1.9-4.4h-12.2l-1.9,4.6c-.5,1.2-1.5,1.9-2.8,1.9s-2.8-1.3-2.8-2.9.2-.9.4-1.3M580.6,490.1c3,0,4.7-1.6,4.7-3.9h0c0-2.7-1.8-4-4.8-4h-6.1v8h6.2ZM568.3,479.7c0-1.7,1.3-3.1,3.1-3.1h9.6c3.5,0,6.3,1,8.1,2.8,1.5,1.5,2.4,3.7,2.4,6.3h0c0,4.4-2.2,7.1-5.6,8.5l4.2,5.2c.6.8,1,1.4,1,2.3,0,1.7-1.4,2.8-2.9,2.8s-2.3-.7-3-1.6l-5.9-7.5h-4.9v6.1c0,1.7-1.3,3.1-3.1,3.1s-3.1-1.3-3.1-3.1v-21.9ZM597.2,479.5c0-1.7,1.3-3.1,3.1-3.1s3.1,1.3,3.1,3.1v9.3l11.2-11.2c.8-.8,1.5-1.2,2.6-1.2,1.7,0,2.8,1.3,2.8,2.8s-.4,1.7-1.1,2.3l-7.8,7.3,8.5,10.7c.5.6.8,1.2.8,2.1,0,1.7-1.3,3-3.1,3s-1.9-.6-2.6-1.5l-7.9-10.4-3.5,3.2v5.5c0,1.7-1.3,3.1-3.1,3.1s-3.1-1.3-3.1-3.1v-22.1ZM625.3,479.5c0-1.7,1.3-3.1,3.1-3.1s3.1,1.3,3.1,3.1v22.1c0,1.7-1.3,3.1-3.1,3.1s-3.1-1.3-3.1-3.1v-22.1ZM638.4,479.5c0-1.7,1.3-3.1,3.1-3.1h.6c1.5,0,2.3.7,3.2,1.8l11.8,15.5v-14.3c0-1.7,1.3-3,3-3s3,1.3,3,3v22.1c0,1.7-1.3,3.1-3.1,3.1h-.2c-1.5,0-2.3-.7-3.2-1.8l-12.2-16v14.9c0,1.7-1.3,3-3,3s-3-1.3-3-3v-22.1ZM669.4,501.5c-.7-.5-1.1-1.3-1.1-2.3,0-1.6,1.3-2.8,2.9-2.8s1.3.3,1.7.6c2.1,1.5,4.4,2.5,7.1,2.5s4-1,4-2.6h0c0-1.6-.9-2.4-5.6-3.6-5.6-1.4-9.2-3-9.2-8.5h0c0-5.1,4-8.4,9.7-8.4s6.3.9,8.8,2.5c.7.4,1.3,1.2,1.3,2.4s-1.3,2.8-2.9,2.8-1.1-.2-1.5-.4c-2-1.2-3.9-1.9-5.8-1.9s-3.6,1.1-3.6,2.4h0c0,1.9,1.2,2.5,6,3.7,5.6,1.5,8.8,3.5,8.8,8.3h0c0,5.6-4.2,8.7-10.2,8.7s-7.3-1.1-10.4-3.3M716.8,490.6h0c0-4.8-3.5-8.8-8.4-8.8s-8.3,3.9-8.3,8.6h0c0,4.8,3.5,8.8,8.4,8.8s8.3-3.9,8.3-8.6M693.7,490.6h0c0-8,6.2-14.4,14.8-14.4s14.7,6.4,14.7,14.3h0c0,8-6.2,14.4-14.8,14.4s-14.7-6.4-14.7-14.3M728.7,479.5c0-1.7,1.3-3.1,3.1-3.1h.6c1.5,0,2.3.7,3.2,1.8l11.8,15.5v-14.3c0-1.7,1.3-3,3-3s3,1.3,3,3v22.1c0,1.7-1.3,3.1-3.1,3.1h-.2c-1.5,0-2.3-.7-3.2-1.8l-12.2-16v14.9c0,1.7-1.3,3-3,3s-3-1.3-3-3v-22.1ZM778.3,498.9c5,0,8.4-3.4,8.4-8.3h0c0-5-3.4-8.4-8.4-8.4h-4.7v16.7h4.7ZM767.5,479.7c0-1.7,1.3-3.1,3.1-3.1h7.8c8.7,0,14.7,6,14.7,13.8h0c0,7.9-6,13.9-14.7,13.9h-7.8c-1.7,0-3.1-1.3-3.1-3.1v-21.6ZM798.1,479.5c0-1.7,1.3-3.1,3.1-3.1s3.1,1.3,3.1,3.1v22.1c0,1.7-1.3,3.1-3.1,3.1s-3.1-1.3-3.1-3.1v-22.1ZM810.5,501.5c-.7-.5-1.1-1.3-1.1-2.3,0-1.6,1.3-2.8,2.8-2.8s1.3.3,1.7.6c2.1,1.5,4.4,2.5,7.1,2.5s4-1,4-2.6h0c0-1.6-.9-2.4-5.6-3.6-5.6-1.4-9.2-3-9.2-8.5h0c0-5.1,4-8.4,9.7-8.4s6.3.9,8.8,2.5c.7.4,1.3,1.2,1.3,2.4s-1.3,2.8-2.9,2.8-1.1-.2-1.5-.4c-2-1.2-3.9-1.9-5.8-1.9s-3.6,1.1-3.6,2.4h0c0,1.9,1.2,2.5,6,3.7,5.6,1.5,8.8,3.5,8.8,8.3h0c0,5.6-4.2,8.7-10.2,8.7s-7.3-1.1-10.4-3.3M836.8,501.3v-21.6c0-1.7,1.3-3.1,3.1-3.1h15.4c1.5,0,2.7,1.2,2.7,2.7s-1.2,2.7-2.7,2.7h-12.4v5.6h10.6c1.5,0,2.7,1.2,2.7,2.7s-1.2,2.7-2.7,2.7h-10.6v5.8h12.6c1.5,0,2.7,1.2,2.7,2.7s-1.2,2.7-2.7,2.7h-15.6c-1.7,0-3.1-1.3-3.1-3.1M879.3,492.8l-3.8-9.2-3.8,9.2h7.7ZM862.2,500.5l9.7-21.8c.7-1.5,1.9-2.4,3.6-2.4h.4c1.7,0,2.9.9,3.5,2.4l9.7,21.8c.2.4.3.8.3,1.2,0,1.6-1.3,2.9-2.9,2.9s-2.4-.8-2.9-2.1l-1.9-4.4h-12.2l-1.9,4.6c-.5,1.2-1.5,1.9-2.8,1.9s-2.8-1.3-2.8-2.9.2-.9.4-1.3M893.5,501.5c-.7-.5-1.2-1.3-1.2-2.3,0-1.6,1.3-2.8,2.9-2.8s1.3.3,1.7.6c2.1,1.5,4.4,2.5,7.1,2.5s4-1,4-2.6h0c0-1.6-1-2.4-5.6-3.6-5.6-1.4-9.2-3-9.2-8.5h0c0-5.1,4-8.4,9.7-8.4s6.3.9,8.8,2.5c.7.4,1.3,1.2,1.3,2.4s-1.3,2.8-2.9,2.8-1.1-.2-1.5-.4c-2-1.2-3.9-1.9-5.8-1.9s-3.6,1.1-3.6,2.4h0c0,1.9,1.2,2.5,6,3.7,5.6,1.5,8.8,3.5,8.8,8.3h0c0,5.6-4.2,8.7-10.2,8.7s-7.3-1.1-10.4-3.3M919.2,501.3v-21.6c0-1.7,1.3-3.1,3.1-3.1h15.4c1.5,0,2.7,1.2,2.7,2.7s-1.2,2.7-2.7,2.7h-12.4v5.6h10.6c1.5,0,2.7,1.2,2.7,2.7s-1.2,2.7-2.7,2.7h-10.6v5.8h12.6c1.5,0,2.7,1.2,2.7,2.7s-1.2,2.7-2.7,2.7h-15.6c-1.7,0-3.1-1.3-3.1-3.1M529.6,530.1l-3.8-9.2-3.8,9.2h7.7ZM512.4,537.8l9.7-21.8c.7-1.5,1.9-2.4,3.6-2.4h.4c1.7,0,2.8.9,3.5,2.4l9.7,21.8c.2.4.3.8.3,1.2,0,1.6-1.3,2.9-2.9,2.9s-2.4-.8-2.9-2.1l-1.9-4.4h-12.2l-1.9,4.6c-.5,1.2-1.5,1.9-2.8,1.9s-2.8-1.3-2.8-2.9.2-.9.4-1.3M543.8,538.8c-.7-.5-1.1-1.3-1.1-2.3,0-1.6,1.3-2.8,2.8-2.8s1.3.3,1.7.6c2.1,1.5,4.4,2.5,7.1,2.5s4-1,4-2.6h0c0-1.6-.9-2.4-5.6-3.6-5.6-1.4-9.2-3-9.2-8.5h0c0-5.1,4-8.4,9.7-8.4s6.3.9,8.8,2.5c.7.4,1.3,1.2,1.3,2.4s-1.3,2.8-2.9,2.8-1.1-.2-1.5-.4c-2-1.2-3.9-1.9-5.8-1.9s-3.6,1.1-3.6,2.4h0c0,1.9,1.2,2.5,6,3.7,5.6,1.5,8.8,3.5,8.8,8.3h0c0,5.6-4.2,8.7-10.2,8.7s-7.3-1.1-10.4-3.3M569.7,538.8c-.7-.5-1.1-1.3-1.1-2.3,0-1.6,1.3-2.8,2.8-2.8s1.3.3,1.7.6c2.1,1.5,4.4,2.5,7.1,2.5s4-1,4-2.6h0c0-1.6-.9-2.4-5.6-3.6-5.6-1.4-9.2-3-9.2-8.5h0c0-5.1,4-8.4,9.7-8.4s6.3.9,8.8,2.5c.7.4,1.3,1.2,1.3,2.4s-1.3,2.8-2.9,2.8-1.1-.2-1.5-.4c-2-1.2-3.9-1.9-5.8-1.9s-3.6,1.1-3.6,2.4h0c0,1.9,1.2,2.5,6,3.7,5.6,1.5,8.8,3.5,8.8,8.3h0c0,5.6-4.2,8.7-10.2,8.7s-7.3-1.1-10.4-3.3M617,527.9h0c0-4.8-3.5-8.8-8.4-8.8s-8.3,3.9-8.3,8.6h0c0,4.8,3.5,8.8,8.4,8.8s8.3-3.9,8.3-8.6M593.9,527.9h0c0-8,6.2-14.4,14.8-14.4s14.7,6.4,14.7,14.3h0c0,8-6.2,14.4-14.8,14.4s-14.7-6.4-14.7-14.3M627.3,527.9h0c0-8,5.9-14.4,14.5-14.4s7,1.1,9.3,2.8c.6.5,1.2,1.3,1.2,2.4,0,1.7-1.3,3-3,3s-1.4-.3-1.8-.6c-1.7-1.3-3.5-2-5.7-2-4.7,0-8,3.9-8,8.6h0c0,4.8,3.3,8.8,8,8.8s4.3-.8,6-2.2c.5-.4,1.1-.7,1.8-.7,1.5,0,2.8,1.3,2.8,2.8s-.5,1.7-1,2.2c-2.5,2.2-5.4,3.5-9.9,3.5-8.2,0-14.2-6.3-14.2-14.3M657.8,516.8c0-1.7,1.4-3.1,3.1-3.1s3.1,1.3,3.1,3.1v22.1c0,1.7-1.3,3.1-3.1,3.1s-3.1-1.3-3.1-3.1v-22.1ZM685.8,530.1l-3.8-9.2-3.8,9.2h7.7ZM668.7,537.8l9.7-21.8c.7-1.5,1.9-2.4,3.6-2.4h.4c1.7,0,2.9.9,3.5,2.4l9.7,21.8c.2.4.3.8.3,1.2,0,1.6-1.3,2.9-2.9,2.9s-2.4-.8-2.9-2.1l-1.9-4.4h-12.2l-1.9,4.6c-.5,1.2-1.5,1.9-2.8,1.9s-2.8-1.3-2.8-2.9.2-.9.4-1.3M703.1,519.6h-5.9c-1.5,0-2.8-1.3-2.8-2.8s1.3-2.8,2.8-2.8h17.8c1.5,0,2.8,1.3,2.8,2.8s-1.3,2.8-2.8,2.8h-5.9v19.3c0,1.7-1.3,3.1-3.1,3.1s-3.1-1.3-3.1-3.1v-19.3ZM722.3,516.8c0-1.7,1.3-3.1,3.1-3.1s3.1,1.3,3.1,3.1v22.1c0,1.7-1.3,3.1-3.1,3.1s-3.1-1.3-3.1-3.1v-22.1ZM755.9,527.9h0c0-4.8-3.5-8.8-8.4-8.8s-8.3,3.9-8.3,8.6h0c0,4.8,3.5,8.8,8.4,8.8s8.3-3.9,8.3-8.6M732.8,527.9h0c0-8,6.2-14.4,14.8-14.4s14.7,6.4,14.7,14.3h0c0,8-6.2,14.4-14.8,14.4s-14.7-6.4-14.7-14.3M767.6,516.8c0-1.7,1.3-3.1,3.1-3.1h.6c1.5,0,2.3.7,3.2,1.8l11.8,15.5v-14.3c0-1.7,1.3-3,3-3s3,1.3,3,3v22.1c0,1.7-1.3,3.1-3.1,3.1h-.2c-1.5,0-2.3-.7-3.2-1.8l-12.2-16v14.9c0,1.7-1.4,3-3,3s-3-1.3-3-3v-22.1Z"/>
  <path class="st0" d="M517.9,562.5c-.3.3-.5.6-.5,1.1s.2.8.6,1.1c.4.3,1.3.6,2.8.9,1.5.4,2.6.9,3.4,1.6.8.7,1.2,1.8,1.2,3.2s-.5,2.5-1.6,3.4c-1,.9-2.4,1.3-4.1,1.3-2.4,0-4.6-.9-6.6-2.7l2.1-2.5c1.7,1.5,3.2,2.2,4.6,2.2s1.1-.1,1.5-.4c.4-.3.5-.6.5-1.1s-.2-.8-.6-1.1c-.4-.3-1.1-.5-2.3-.8-1.8-.4-3.1-1-3.9-1.7-.8-.7-1.2-1.8-1.2-3.2s.5-2.6,1.6-3.4c1.1-.8,2.4-1.2,3.9-1.2s2.1.2,3.1.5c1,.4,1.9.9,2.7,1.5l-1.7,2.5c-1.3-1-2.7-1.5-4.2-1.5s-1,.1-1.4.4M531.4,565.3v5.3c0,.5.1.8.4,1.1.2.3.5.4.8.4.6,0,1.1-.3,1.6-.8l1.2,2.3c-1,.9-2.1,1.4-3.3,1.4s-2.1-.4-2.9-1.1c-.8-.8-1.2-1.8-1.2-3.1v-5.5h-1.4v-2.4h1.4v-3.6h3.3v3.6h2.9v2.4h-2.9ZM543.2,565.8c-1,0-1.7.3-2.2,1.1-.5.7-.7,1.6-.7,2.8v5.1h-3.3v-11.9h3.3v1.6c.4-.5,1-.9,1.6-1.2.6-.3,1.3-.5,2-.5v3.1s-.6,0-.6,0ZM556,573.1c-1.3,1.3-2.9,1.9-4.7,1.9s-3.3-.6-4.5-1.7c-1.2-1.1-1.8-2.6-1.8-4.5s.6-3.4,1.8-4.5c1.2-1.1,2.6-1.7,4.3-1.7s3,.5,4.2,1.5c1.1,1,1.7,2.3,1.7,4.1v1.8h-8.7c.1.6.4,1.2,1,1.6.6.4,1.2.6,1.9.6,1.2,0,2.1-.4,2.9-1.2l1.9,2ZM552.8,566c-.5-.4-1-.6-1.7-.6s-1.3.2-1.8.6c-.5.4-.9.9-.9,1.6h5.2c0-.7-.3-1.3-.8-1.6ZM562.5,568.2v6.6h-3.3v-11.9h3.3v1.3c1-1,2.1-1.5,3.4-1.5s2.3.4,3.1,1.3c.8.9,1.3,2.1,1.3,3.5v7.2h-3.3v-6.7c0-1.8-.7-2.7-2-2.7s-1.2.2-1.7.7c-.5.5-.7,1.2-.7,2.1ZM581.9,572.8c-1,1.2-2.3,1.7-3.9,1.7s-2.9-.5-3.9-1.6c-1.1-1.1-1.6-2.5-1.6-4.2s.5-3.2,1.6-4.3c1.1-1.1,2.3-1.7,3.8-1.7s2.6.6,3.5,1.7v-1.6h3.3v10.4c0,1.1-.2,2-.6,2.8-.4.8-.9,1.5-1.5,1.9-1.2,1-2.7,1.5-4.3,1.5s-1.8-.1-2.7-.4c-.9-.3-1.7-.7-2.4-1.2l1.3-2.5c1.1.8,2.2,1.2,3.5,1.2s2.2-.3,2.9-.9c.7-.6,1.1-1.6,1.1-2.9ZM581.4,568.6c0-.9-.3-1.7-.8-2.2-.5-.5-1.2-.8-2-.8s-1.5.3-2,.8c-.6.5-.9,1.3-.9,2.2s.3,1.7.8,2.3c.6.6,1.2.9,2,.9s1.5-.3,2-.9c.5-.6.8-1.3.8-2.3ZM591.4,565.3v5.3c0,.5.1.8.4,1.1.2.3.5.4.8.4.6,0,1.1-.3,1.6-.8l1.2,2.3c-1,.9-2.1,1.4-3.3,1.4s-2.1-.4-2.9-1.1c-.8-.8-1.2-1.8-1.2-3.1v-5.5h-1.4v-2.4h1.4v-3.6h3.3v3.6h2.9v2.4h-2.9ZM600.3,568.4v6.4h-3.3v-16.4h3.3v5.8c1-1,2.1-1.5,3.4-1.5s2.3.4,3.1,1.3c.9.9,1.3,2.1,1.3,3.5v7.2h-3.3v-6.5c0-1.8-.7-2.7-2-2.7s-1.2.2-1.7.7c-.5.5-.7,1.2-.7,2.1ZM616.2,561.4c-.4-.4-.6-.8-.6-1.4s.2-1,.6-1.4c.4-.4.8-.6,1.4-.6s1,.2,1.4.6c.4.4.6.8.6,1.4s-.2,1-.6,1.4c-.4.4-.8.6-1.4.6s-1-.2-1.4-.6ZM619.2,574.8h-3.3v-11.9h3.3v11.9ZM625.5,568.2v6.6h-3.3v-11.9h3.3v1.3c1-1,2.1-1.5,3.4-1.5s2.3.4,3.1,1.3c.8.9,1.3,2.1,1.3,3.5v7.2h-3.3v-6.7c0-1.8-.7-2.7-2-2.7s-1.2.2-1.7.7c-.5.5-.7,1.2-.7,2.1ZM652.4,568.9c0,1.7-.6,3.2-1.8,4.4-1.2,1.2-2.7,1.8-4.5,1.8s-3.3-.6-4.5-1.8c-1.2-1.2-1.8-2.6-1.8-4.4s.6-3.2,1.8-4.4c1.2-1.2,2.7-1.8,4.5-1.8s3.3.6,4.5,1.8c1.2,1.2,1.8,2.6,1.8,4.4ZM643.2,568.9c0,1,.3,1.8.8,2.4.6.6,1.3.9,2.1.9s1.6-.3,2.1-.9c.6-.6.8-1.4.8-2.4s-.3-1.8-.8-2.4c-.6-.6-1.3-.9-2.1-.9s-1.6.3-2.1.9c-.6.6-.8,1.4-.8,2.4ZM661.5,562.7c1.4,0,2.6.6,3.7,1.7s1.6,2.6,1.6,4.4-.5,3.2-1.6,4.4c-1.1,1.2-2.3,1.8-3.8,1.8s-2.6-.6-3.5-1.7v5.9h-3.3v-16.2h3.3v1.3c1-1,2.2-1.5,3.6-1.5ZM657.9,568.9c0,1,.3,1.8.8,2.4.5.6,1.2.9,2,.9s1.4-.3,2-.9c.6-.6.9-1.4.9-2.4s-.3-1.8-.8-2.4-1.2-1-2-1-1.4.3-2,1c-.5.6-.8,1.4-.8,2.4ZM672.7,565.3v5.3c0,.5.1.8.4,1.1.2.3.5.4.8.4.6,0,1.1-.3,1.6-.8l1.2,2.3c-1,.9-2.1,1.4-3.3,1.4s-2.1-.4-2.9-1.1c-.8-.8-1.2-1.8-1.2-3.1v-5.5h-1.4v-2.4h1.4v-3.6h3.3v3.6h2.9v2.4h-2.9ZM678.5,561.4c-.4-.4-.6-.8-.6-1.4s.2-1,.6-1.4c.4-.4.8-.6,1.4-.6s1,.2,1.4.6c.4.4.6.8.6,1.4s-.2,1-.6,1.4c-.4.4-.8.6-1.4.6s-1-.2-1.4-.6ZM681.6,574.8h-3.3v-11.9h3.3v11.9ZM695.4,568.4v6.4h-3.3v-6.5c0-.9-.1-1.6-.4-2.1-.3-.4-.8-.7-1.4-.7s-1.2.2-1.7.7c-.5.5-.7,1.2-.7,2.1v6.4h-3.3v-11.9h3.3v1.3c.9-1,2-1.5,3.1-1.5s1.4.2,2,.7c.6.4,1.1,1,1.4,1.6.5-.7,1.1-1.3,1.8-1.7.8-.4,1.6-.6,2.3-.6,1.4,0,2.5.4,3.4,1.2.9.8,1.3,2,1.3,3.6v7.2h-3.3v-6.5c0-1.8-.7-2.7-2-2.7s-1.2.2-1.7.7c-.5.5-.7,1.2-.7,2.1ZM706.2,561.4c-.4-.4-.6-.8-.6-1.4s.2-1,.6-1.4c.4-.4.8-.6,1.4-.6s1,.2,1.4.6c.4.4.6.8.6,1.4s-.2,1-.6,1.4c-.4.4-.8.6-1.4.6s-1-.2-1.4-.6ZM709.3,574.8h-3.3v-11.9h3.3v11.9ZM721.1,571.1c0,1.2-.4,2.1-1.3,2.8-.9.7-2,1.1-3.3,1.1s-1.8-.2-2.8-.5c-1-.3-1.8-.8-2.6-1.4l1.5-2.1c1.2,1,2.6,1.4,4,1.4s.8,0,1-.3c.2-.2.4-.4.4-.7s-.2-.5-.5-.8c-.3-.2-.8-.5-1.5-.7-.7-.2-1.2-.4-1.5-.5-.3-.1-.7-.4-1.2-.6-.9-.6-1.3-1.4-1.3-2.5s.4-2,1.3-2.7c.9-.7,2-1,3.4-1s2.8.5,4.2,1.4l-1.2,2.2c-1-.7-2.1-1.1-3.1-1.1s-1.5.3-1.5.8.2.6.5.7c.3.2.9.4,1.6.6.8.2,1.3.4,1.6.5.3.1.7.3,1.1.6.8.5,1.2,1.3,1.2,2.5ZM734.3,568.4v6.4h-3.3v-6.5c0-.9-.1-1.6-.4-2.1-.3-.4-.8-.7-1.4-.7s-1.2.2-1.7.7c-.5.5-.7,1.2-.7,2.1v6.4h-3.3v-11.9h3.3v1.3c.9-1,2-1.5,3.1-1.5s1.4.2,2,.7c.6.4,1.1,1,1.4,1.6.5-.7,1.1-1.3,1.8-1.7.8-.4,1.6-.6,2.3-.6,1.4,0,2.5.4,3.4,1.2.9.8,1.3,2,1.3,3.6v7.2h-3.3v-6.5c0-1.8-.7-2.7-2-2.7s-1.2.2-1.7.7c-.5.5-.7,1.2-.7,2.1ZM744.6,574.4c-.4-.4-.6-.8-.6-1.4s.2-1,.6-1.4c.4-.4.8-.6,1.4-.6s1,.2,1.4.6c.4.4.6.8.6,1.4s-.2,1-.6,1.4-.8.6-1.4.6-1-.2-1.4-.6ZM763.8,559.4h3.4v15.4h-3.4v-6.1h-6.1v6.1h-3.5v-15.4h3.5v6.5h6.1v-6.5ZM781.8,568.9c0,1.7-.6,3.2-1.8,4.4-1.2,1.2-2.7,1.8-4.5,1.8s-3.3-.6-4.5-1.8c-1.2-1.2-1.8-2.6-1.8-4.4s.6-3.2,1.8-4.4c1.2-1.2,2.7-1.8,4.5-1.8s3.3.6,4.5,1.8c1.2,1.2,1.8,2.6,1.8,4.4ZM772.6,568.9c0,1,.3,1.8.8,2.4.6.6,1.3.9,2.1.9s1.6-.3,2.1-.9c.6-.6.8-1.4.8-2.4s-.3-1.8-.8-2.4c-.6-.6-1.3-.9-2.1-.9s-1.6.3-2.1.9c-.6.6-.8,1.4-.8,2.4ZM790.4,562.7c1.4,0,2.6.6,3.7,1.7,1.1,1.2,1.6,2.6,1.6,4.4s-.5,3.2-1.6,4.4c-1.1,1.2-2.3,1.8-3.8,1.8s-2.6-.6-3.5-1.7v5.9h-3.3v-16.2h3.3v1.3c1-1,2.2-1.5,3.6-1.5ZM786.8,568.9c0,1,.3,1.8.8,2.4.5.6,1.2.9,2,.9s1.4-.3,2-.9c.6-.6.9-1.4.9-2.4s-.3-1.8-.8-2.4-1.2-1-2-1-1.4.3-2,1c-.5.6-.8,1.4-.8,2.4ZM808.3,573.1c-1.3,1.3-2.9,1.9-4.7,1.9s-3.3-.6-4.5-1.7c-1.2-1.1-1.8-2.6-1.8-4.5s.6-3.4,1.8-4.5c1.2-1.1,2.6-1.7,4.3-1.7s3,.5,4.2,1.5c1.1,1,1.7,2.3,1.7,4.1v1.8h-8.7c.1.6.4,1.2,1,1.6.6.4,1.2.6,1.9.6,1.2,0,2.1-.4,2.9-1.2l1.9,2ZM805.1,566c-.5-.4-1-.6-1.7-.6s-1.3.2-1.8.6c-.5.4-.9.9-.9,1.6h5.2c0-.7-.3-1.3-.8-1.6ZM816.2,561.4c-.4-.4-.6-.8-.6-1.4s.2-1,.6-1.4c.4-.4.8-.6,1.4-.6s1,.2,1.4.6c.4.4.6.8.6,1.4s-.2,1-.6,1.4c-.4.4-.8.6-1.4.6s-1-.2-1.4-.6ZM819.3,574.8h-3.3v-11.9h3.3v11.9ZM825.5,568.2v6.6h-3.3v-11.9h3.3v1.3c1-1,2.1-1.5,3.4-1.5s2.3.4,3.1,1.3c.8.9,1.3,2.1,1.3,3.5v7.2h-3.3v-6.7c0-1.8-.7-2.7-2-2.7s-1.2.2-1.7.7c-.5.5-.7,1.2-.7,2.1ZM847.5,562.7c1.4,0,2.6.6,3.7,1.7s1.6,2.6,1.6,4.4-.5,3.2-1.6,4.4c-1.1,1.2-2.3,1.8-3.8,1.8s-2.6-.6-3.5-1.7v5.9h-3.3v-16.2h3.3v1.3c1-1,2.2-1.5,3.6-1.5ZM843.9,568.9c0,1,.3,1.8.8,2.4.5.6,1.2.9,2,.9s1.4-.3,2-.9c.6-.6.9-1.4.9-2.4s-.3-1.8-.8-2.4c-.6-.6-1.2-1-2-1s-1.4.3-2,1c-.5.6-.8,1.4-.8,2.4ZM861.4,565.8c-1,0-1.7.3-2.2,1.1-.5.7-.7,1.6-.7,2.8v5.1h-3.3v-11.9h3.3v1.6c.4-.5,1-.9,1.6-1.2.6-.3,1.3-.5,2-.5v3.1s-.6,0-.6,0ZM875.7,568.9c0,1.7-.6,3.2-1.8,4.4-1.2,1.2-2.7,1.8-4.5,1.8s-3.3-.6-4.5-1.8c-1.2-1.2-1.8-2.6-1.8-4.4s.6-3.2,1.8-4.4c1.2-1.2,2.7-1.8,4.5-1.8s3.3.6,4.5,1.8c1.2,1.2,1.8,2.6,1.8,4.4ZM866.4,568.9c0,1,.3,1.8.8,2.4.6.6,1.3.9,2.1.9s1.6-.3,2.1-.9c.6-.6.8-1.4.8-2.4s-.3-1.8-.8-2.4c-.6-.6-1.3-.9-2.1-.9s-1.6.3-2.1.9c-.6.6-.8,1.4-.8,2.4ZM886.7,572.8c-1,1.2-2.3,1.7-3.9,1.7s-2.9-.5-3.9-1.6c-1.1-1.1-1.6-2.5-1.6-4.2s.6-3.2,1.6-4.3c1.1-1.1,2.4-1.7,3.8-1.7s2.6.6,3.5,1.7v-1.6h3.3v10.4c0,1.1-.2,2-.6,2.8-.4.8-.9,1.5-1.5,1.9-1.2,1-2.7,1.5-4.3,1.5s-1.8-.1-2.7-.4-1.7-.7-2.4-1.2l1.3-2.5c1.1.8,2.2,1.2,3.5,1.2s2.2-.3,2.9-.9c.7-.6,1.1-1.6,1.1-2.9ZM886.2,568.6c0-.9-.3-1.7-.8-2.2-.5-.5-1.2-.8-2-.8s-1.5.3-2,.8c-.6.5-.9,1.3-.9,2.2s.3,1.7.8,2.3c.6.6,1.2.9,2,.9s1.5-.3,2-.9c.5-.6.8-1.3.8-2.3ZM898.6,565.8c-1,0-1.7.3-2.2,1.1-.5.7-.7,1.6-.7,2.8v5.1h-3.3v-11.9h3.3v1.6c.4-.5,1-.9,1.6-1.2.6-.3,1.3-.5,2-.5v3.1s-.6,0-.6,0ZM911.4,573.1c-1.3,1.3-2.9,1.9-4.7,1.9s-3.3-.6-4.5-1.7c-1.2-1.1-1.8-2.6-1.8-4.5s.6-3.4,1.8-4.5c1.2-1.1,2.6-1.7,4.3-1.7s3,.5,4.2,1.5c1.1,1,1.7,2.3,1.7,4.1v1.8h-8.7c.1.6.4,1.2,1,1.6.6.4,1.2.6,1.9.6,1.2,0,2.1-.4,2.9-1.2l1.9,2ZM908.2,566c-.5-.4-1-.6-1.7-.6s-1.3.2-1.8.6c-.5.4-.9.9-1,1.6h5.2c0-.7-.3-1.3-.8-1.6ZM923.3,571.1c0,1.2-.4,2.1-1.3,2.8-.9.7-2,1.1-3.3,1.1s-1.8-.2-2.8-.5c-1-.3-1.8-.8-2.6-1.4l1.5-2.1c1.2,1,2.6,1.4,4,1.4s.8,0,1-.3c.3-.2.4-.4.4-.7s-.2-.5-.5-.8c-.3-.2-.8-.5-1.5-.7-.7-.2-1.2-.4-1.5-.5s-.7-.4-1.2-.6c-.9-.6-1.3-1.4-1.3-2.5s.4-2,1.3-2.7c.9-.7,2-1,3.4-1s2.8.5,4.2,1.4l-1.2,2.2c-1-.7-2.1-1.1-3.1-1.1s-1.5.3-1.5.8.2.6.5.7c.3.2.9.4,1.6.6.8.2,1.3.4,1.6.5.3.1.7.3,1.1.6.8.5,1.2,1.3,1.2,2.5ZM934.5,571.1c0,1.2-.4,2.1-1.3,2.8-.9.7-2,1.1-3.3,1.1s-1.8-.2-2.8-.5c-1-.3-1.8-.8-2.6-1.4l1.5-2.1c1.2,1,2.6,1.4,4,1.4s.8,0,1-.3c.3-.2.4-.4.4-.7s-.2-.5-.5-.8c-.3-.2-.8-.5-1.5-.7-.7-.2-1.2-.4-1.5-.5-.3-.1-.7-.4-1.2-.6-.9-.6-1.3-1.4-1.3-2.5s.4-2,1.3-2.7c.9-.7,2-1,3.4-1s2.8.5,4.2,1.4l-1.2,2.2c-1-.7-2.1-1.1-3.1-1.1s-1.5.3-1.5.8.2.6.5.7c.3.2.9.4,1.6.6.8.2,1.3.4,1.6.5.3.1.7.3,1.1.6.8.5,1.2,1.3,1.2,2.5ZM936.5,574.4c-.4-.4-.6-.8-.6-1.4s.2-1,.6-1.4c.4-.4.8-.6,1.4-.6s1,.2,1.4.6c.4.4.6.8.6,1.4s-.2,1-.6,1.4c-.4.4-.8.6-1.4.6s-1-.2-1.4-.6Z"/>
  <path class="st0" d="M309.5,463.6v54.2c0,13.1-10,24.6-25.1,24.6s-25.1-11.6-25.1-24.6h0c0-27.9,21.6-30,32.9-39.7v13c-11.3,7.2-21.2,9.8-21.2,26.7h0c0,6.8,4.9,13.8,13.4,13.8s13.7-7,13.7-13.8v-54.2c0-6.8-4-13.8-12.5-13.8s-13.4,7-13.4,13.8v5.3c0,2.1-1.2,3.3-3.3,3.3h-5c-2.1,0-3.3-1.2-3.3-3.3v-5.3c0-13.1,8.8-24.6,23.9-24.6s25.1,11.5,25.1,24.6M460.7,439c-15,0-23.9,11.5-23.9,24.6v5.3c0,2.1,1.2,3.3,3.3,3.3h5c2.1,0,3.3-1.2,3.3-3.3v-5.3c0-6.8,4.9-13.8,13.4-13.8s12.5,7,12.5,13.8v54.2c0,6.8-5.2,13.8-13.7,13.8s-13.4-7-13.4-13.8h0c0-16.9,9.9-19.5,21.2-26.7v-13c-11.3,9.7-32.9,11.7-32.9,39.6h0c0,13,10,24.6,25.1,24.6s25.1-11.5,25.1-24.6v-54.2c0-13.1-10-24.6-25.1-24.6ZM343.9,439c-15,0-25.1,11.6-25.1,24.6v94.3c0,2.1,1.2,3.3,3.3,3.3h5c2.1,0,3.3-1.2,3.3-3.3v-94.3c0-6.8,4.9-13.8,13.4-13.8s13.4,7,13.4,13.8v54.2c0,6.8-4.9,13.8-13.4,13.8s-5.7-.9-7.8-2.5v12.1c2.4.7,5,1.2,7.8,1.2,15,0,25-11.5,25-24.6v-54.2c0-13-10-24.6-25-24.6ZM425.2,420.1h-5c-2.1,0-3.3,1.2-3.3,3.3v94.3c0,6.8-4.9,13.8-13.4,13.8s-13.4-7-13.4-13.8v-54.2c0-6.8,4.9-13.8,13.4-13.8s5.8,1,7.9,2.5v-12.1c-2.4-.7-5-1.2-7.9-1.2-15,0-25.1,11.5-25.1,24.6v54.2c0,13.1,10,24.6,25.1,24.6s25-11.6,25-24.6v-94.3c0-2.1-1.2-3.3-3.3-3.3Z"/>
</svg>