<?xml version="1.0" encoding="UTF-8"?>
<svg id="Layer_1" xmlns="http://www.w3.org/2000/svg" version="1.1" viewBox="0 0 216 45">
  <!-- Generator: Adobe Illustrator 29.8.9, SVG Export Plug-In . SVG Version: 2.1.1 Build 1)  -->
  <defs>
    <style>
      .st0 {
        fill: #fff;
      }
    </style>
  </defs>
  <path class="st0" d="M88.6,10.2l-1-2.5-1,2.5h2.1M83.9,12.3l2.7-6c.2-.4.5-.7,1-.7h.1c.5,0,.8.2,1,.7l2.7,6c0,.1,0,.2,0,.3,0,.4-.4.8-.8.8s-.7-.2-.8-.6l-.5-1.2h-3.4l-.5,1.3c-.1.3-.4.5-.8.5s-.8-.4-.8-.8,0-.2.1-.4M92.5,6.6c0-.5.4-.9.9-.9h.2c.4,0,.6.2.8.4l2,3.3,2-3.3c.2-.3.4-.4.7-.4h.2c.5,0,.9.4.9.9v6.1c0,.5-.4.9-.9.9s-.8-.4-.8-.9v-3.8l-1.5,2.3c-.2.2-.4.4-.7.4s-.5-.2-.7-.4l-1.5-2.2v3.8c0,.5-.4.8-.8.8s-.8-.4-.8-.8v-6.1h0ZM101.9,12.5v-6c0-.5.4-.8.8-.8h4.2c.4,0,.7.3.7.7s-.3.7-.7.7h-3.4v1.5h2.9c.4,0,.7.3.7.7s-.3.7-.7.7h-2.9v1.6h3.5c.4,0,.7.3.7.7s-.3.7-.7.7h-4.3c-.5,0-.8-.4-.8-.9M112.5,9.5c.8,0,1.3-.4,1.3-1.1h0c0-.7-.5-1.1-1.3-1.1h-1.7v2.2h1.7,0ZM109.1,6.6c0-.5.4-.9.9-.9h2.6c1,0,1.7.3,2.2.8s.7,1,.7,1.7h0c0,1.2-.6,2-1.5,2.3l1.2,1.4c.2.2.3.4.3.6,0,.5-.4.8-.8.8s-.6-.2-.8-.4l-1.6-2.1h-1.4v1.7c0,.5-.4.9-.9.9s-.9-.4-.9-.9v-6h0ZM117.2,6.5c0-.5.4-.9.9-.9s.9.4.9.9v6.1c0,.5-.4.8-.9.8s-.9-.4-.9-.8v-6.1ZM120.2,9.6h0c0-2.2,1.6-4,4-4s1.9.3,2.6.8c.2.1.3.4.3.7,0,.5-.4.8-.8.8s-.4,0-.5-.2c-.5-.4-1-.6-1.6-.6-1.3,0-2.2,1.1-2.2,2.4h0c0,1.3.9,2.4,2.2,2.4s1.2-.2,1.7-.6c.1-.1.3-.2.5-.2.4,0,.8.4.8.8s-.1.5-.3.6c-.7.6-1.5,1-2.7,1-2.3,0-3.9-1.7-3.9-3.9M132.8,10.2l-1-2.5-1,2.5h2.1,0ZM128.1,12.3l2.7-6c.2-.4.5-.7,1-.7h.1c.5,0,.8.2,1,.7l2.7,6c0,.1,0,.2,0,.3,0,.4-.4.8-.8.8s-.7-.2-.8-.6l-.5-1.2h-3.4l-.5,1.3c-.1.3-.4.5-.8.5s-.8-.4-.8-.8,0-.2.1-.4M136.7,6.6c0-.5.4-.9.9-.9h.2c.4,0,.6.2.9.5l3.3,4.3v-3.9c0-.5.4-.8.8-.8s.8.4.8.8v6.1c0,.5-.4.9-.9.9h0c-.4,0-.6-.2-.9-.5l-3.4-4.4v4.1c0,.5-.4.8-.8.8s-.8-.4-.8-.8v-6.1h0ZM87.3,19.9c.8,0,1.3-.5,1.3-1.2h0c0-.8-.5-1.2-1.4-1.2h-1.3v2.3h1.4ZM84.3,16.9c0-.5.4-.9.9-.9h2.3c1.8,0,2.9,1.1,2.9,2.6h0c0,1.8-1.4,2.7-3.1,2.7h-1.3v1.5c0,.5-.4.9-.9.9s-.9-.4-.9-.9v-6h0ZM95.4,20.5l-1-2.5-1,2.5h2.1,0ZM90.6,22.6l2.7-6c.2-.4.5-.7,1-.7h.1c.5,0,.8.2,1,.7l2.7,6c0,.1,0,.2,0,.3,0,.4-.4.8-.8.8s-.7-.2-.8-.6l-.5-1.2h-3.4l-.5,1.3c-.1.3-.4.5-.8.5s-.8-.4-.8-.8,0-.2.1-.4M102.7,19.7c.8,0,1.3-.4,1.3-1.1h0c0-.7-.5-1.1-1.3-1.1h-1.7v2.2h1.7,0ZM99.3,16.9c0-.5.4-.9.9-.9h2.6c1,0,1.7.3,2.2.8s.7,1,.7,1.7h0c0,1.2-.6,2-1.5,2.3l1.2,1.4c.2.2.3.4.3.6,0,.5-.4.8-.8.8s-.6-.2-.8-.4l-1.6-2.1h-1.4v1.7c0,.5-.4.9-.9.9s-.9-.4-.9-.9v-6h0ZM107.2,16.8c0-.5.4-.9.9-.9s.9.4.9.9v2.6l3.1-3.1c.2-.2.4-.3.7-.3.5,0,.8.4.8.8s-.1.5-.3.6l-2.1,2,2.3,2.9c.1.2.2.3.2.6,0,.5-.4.8-.9.8s-.5-.2-.7-.4l-2.2-2.9-1,.9v1.5c0,.5-.4.9-.9.9s-.9-.4-.9-.9v-6.1h0ZM115,16.8c0-.5.4-.9.9-.9s.9.4.9.9v6.1c0,.5-.4.9-.9.9s-.9-.4-.9-.9v-6.1ZM118.6,16.8c0-.5.4-.9.9-.9h.2c.4,0,.6.2.9.5l3.3,4.3v-3.9c0-.5.4-.8.8-.8s.8.4.8.8v6.1c0,.5-.4.9-.9.9h0c-.4,0-.6-.2-.9-.5l-3.4-4.4v4.1c0,.5-.4.8-.8.8s-.8-.4-.8-.8v-6.1h0ZM127.1,22.9c-.2-.1-.3-.4-.3-.6,0-.4.4-.8.8-.8s.4,0,.5.2c.6.4,1.2.7,2,.7s1.1-.3,1.1-.7h0c0-.4-.2-.7-1.5-1-1.5-.4-2.5-.8-2.5-2.3h0c0-1.4,1.1-2.3,2.7-2.3s1.7.2,2.4.7c.2.1.4.3.4.7s-.4.8-.8.8-.3,0-.4-.1c-.6-.3-1.1-.5-1.6-.5s-1,.3-1,.7h0c0,.5.3.7,1.7,1,1.5.4,2.4,1,2.4,2.3h0c0,1.5-1.2,2.4-2.8,2.4s-2-.3-2.9-.9M140.2,19.9h0c0-1.3-1-2.4-2.3-2.4s-2.3,1.1-2.3,2.4h0c0,1.3,1,2.4,2.3,2.4s2.3-1.1,2.3-2.4M133.8,19.9h0c0-2.2,1.7-4,4.1-4s4.1,1.8,4.1,3.9h0c0,2.2-1.7,4-4.1,4s-4.1-1.8-4.1-3.9M143.5,16.8c0-.5.4-.9.9-.9h.2c.4,0,.6.2.9.5l3.3,4.3v-3.9c0-.5.4-.8.8-.8s.8.4.8.8v6.1c0,.5-.4.9-.9.9h0c-.4,0-.6-.2-.9-.5l-3.4-4.4v4.1c0,.5-.4.8-.8.8s-.8-.4-.8-.8v-6.1h0ZM157.2,22.2c1.4,0,2.3-.9,2.3-2.3h0c0-1.4-.9-2.3-2.3-2.3h-1.3v4.6h1.3ZM154.2,16.9c0-.5.4-.9.9-.9h2.1c2.4,0,4.1,1.7,4.1,3.8h0c0,2.2-1.7,3.8-4.1,3.8h-2.1c-.5,0-.9-.4-.9-.9v-6h0ZM162.6,16.8c0-.5.4-.9.9-.9s.9.4.9.9v6.1c0,.5-.4.9-.9.9s-.9-.4-.9-.9v-6.1ZM166,22.9c-.2-.1-.3-.4-.3-.6,0-.4.4-.8.8-.8s.4,0,.5.2c.6.4,1.2.7,2,.7s1.1-.3,1.1-.7h0c0-.4-.2-.7-1.5-1-1.5-.4-2.5-.8-2.5-2.3h0c0-1.4,1.1-2.3,2.7-2.3s1.7.2,2.4.7c.2.1.4.3.4.7s-.4.8-.8.8-.3,0-.4-.1c-.6-.3-1.1-.5-1.6-.5s-1,.3-1,.7h0c0,.5.3.7,1.7,1,1.5.4,2.4,1,2.4,2.3h0c0,1.5-1.2,2.4-2.8,2.4s-2-.3-2.9-.9M173.3,22.8v-6c0-.5.4-.9.9-.9h4.2c.4,0,.7.3.7.7s-.3.7-.7.7h-3.4v1.5h2.9c.4,0,.7.3.7.7s-.3.7-.7.7h-2.9v1.6h3.5c.4,0,.7.3.7.7s-.3.7-.7.7h-4.3c-.5,0-.9-.4-.9-.9M185,20.5l-1-2.5-1,2.5h2.1,0ZM180.3,22.6l2.7-6c.2-.4.5-.7,1-.7h.1c.5,0,.8.2,1,.7l2.7,6c0,.1,0,.2,0,.3,0,.4-.4.8-.8.8s-.7-.2-.8-.6l-.5-1.2h-3.4l-.5,1.3c-.1.3-.4.5-.8.5s-.8-.4-.8-.8,0-.2.1-.4M188.9,22.9c-.2-.1-.3-.4-.3-.6,0-.4.4-.8.8-.8s.4,0,.5.2c.6.4,1.2.7,2,.7s1.1-.3,1.1-.7h0c0-.4-.3-.7-1.5-1-1.5-.4-2.5-.8-2.5-2.3h0c0-1.4,1.1-2.3,2.7-2.3s1.7.2,2.4.7c.2.1.4.3.4.7s-.4.8-.8.8-.3,0-.4-.1c-.6-.3-1.1-.5-1.6-.5s-1,.3-1,.7h0c0,.5.3.7,1.7,1,1.5.4,2.4,1,2.4,2.3h0c0,1.5-1.2,2.4-2.8,2.4s-2-.3-2.9-.9M196,22.8v-6c0-.5.4-.9.9-.9h4.2c.4,0,.7.3.7.7s-.3.7-.7.7h-3.4v1.5h2.9c.4,0,.7.3.7.7s-.3.7-.7.7h-2.9v1.6h3.5c.4,0,.7.3.7.7s-.3.7-.7.7h-4.3c-.5,0-.9-.4-.9-.9M88.6,30.8l-1-2.5-1,2.5h2.1,0ZM83.9,32.9l2.7-6c.2-.4.5-.7,1-.7h.1c.5,0,.8.2,1,.7l2.7,6c0,.1,0,.2,0,.3,0,.4-.4.8-.8.8s-.7-.2-.8-.6l-.5-1.2h-3.4l-.5,1.3c-.1.3-.4.5-.8.5s-.8-.4-.8-.8,0-.2.1-.4M92.5,33.2c-.2-.1-.3-.4-.3-.6,0-.4.4-.8.8-.8s.4,0,.5.2c.6.4,1.2.7,2,.7s1.1-.3,1.1-.7h0c0-.4-.2-.7-1.5-1-1.5-.4-2.5-.8-2.5-2.3h0c0-1.4,1.1-2.3,2.7-2.3s1.7.2,2.4.7c.2.1.4.3.4.7s-.4.8-.8.8-.3,0-.4-.1c-.6-.3-1.1-.5-1.6-.5s-1,.3-1,.7h0c0,.5.3.7,1.7,1,1.5.4,2.4,1,2.4,2.3h0c0,1.5-1.2,2.4-2.8,2.4s-2-.3-2.9-.9M99.7,33.2c-.2-.1-.3-.4-.3-.6,0-.4.4-.8.8-.8s.4,0,.5.2c.6.4,1.2.7,2,.7s1.1-.3,1.1-.7h0c0-.4-.2-.7-1.5-1-1.5-.4-2.5-.8-2.5-2.3h0c0-1.4,1.1-2.3,2.7-2.3s1.7.2,2.4.7c.2.1.4.3.4.7s-.4.8-.8.8-.3,0-.4-.1c-.6-.3-1.1-.5-1.6-.5s-1,.3-1,.7h0c0,.5.3.7,1.7,1,1.5.4,2.4,1,2.4,2.3h0c0,1.5-1.2,2.4-2.8,2.4s-2-.3-2.9-.9M112.7,30.2h0c0-1.3-1-2.4-2.3-2.4s-2.3,1.1-2.3,2.4h0c0,1.3,1,2.4,2.3,2.4s2.3-1.1,2.3-2.4M106.3,30.2h0c0-2.2,1.7-4,4.1-4s4.1,1.8,4.1,3.9h0c0,2.2-1.7,4-4.1,4s-4.1-1.8-4.1-3.9M115.5,30.2h0c0-2.2,1.6-4,4-4s1.9.3,2.6.8c.2.1.3.4.3.7,0,.5-.4.8-.8.8s-.4,0-.5-.2c-.5-.4-1-.6-1.6-.6-1.3,0-2.2,1.1-2.2,2.4h0c0,1.3.9,2.4,2.2,2.4s1.2-.2,1.7-.6c.1-.1.3-.2.5-.2.4,0,.8.4.8.8s-.1.5-.3.6c-.7.6-1.5,1-2.7,1-2.3,0-3.9-1.7-3.9-3.9M123.9,27.1c0-.5.4-.9.9-.9s.9.4.9.9v6.1c0,.5-.4.9-.9.9s-.9-.4-.9-.9v-6.1ZM131.7,30.8l-1-2.5-1,2.5h2.1,0ZM127,32.9l2.7-6c.2-.4.5-.7,1-.7h.1c.5,0,.8.2,1,.7l2.7,6c0,.1,0,.2,0,.3,0,.4-.4.8-.8.8s-.7-.2-.8-.6l-.5-1.2h-3.4l-.5,1.3c-.1.3-.4.5-.8.5s-.8-.4-.8-.8,0-.2.1-.4M136.4,27.9h-1.6c-.4,0-.8-.4-.8-.8s.4-.8.8-.8h4.9c.4,0,.8.4.8.8s-.4.8-.8.8h-1.6v5.3c0,.5-.4.9-.9.9s-.9-.4-.9-.9v-5.3h0ZM141.7,27.1c0-.5.4-.9.9-.9s.9.4.9.9v6.1c0,.5-.4.9-.9.9s-.9-.4-.9-.9v-6.1ZM151,30.2h0c0-1.3-1-2.4-2.3-2.4s-2.3,1.1-2.3,2.4h0c0,1.3,1,2.4,2.3,2.4s2.3-1.1,2.3-2.4M144.6,30.2h0c0-2.2,1.7-4,4.1-4s4.1,1.8,4.1,3.9h0c0,2.2-1.7,4-4.1,4s-4.1-1.8-4.1-3.9M154.2,27.1c0-.5.4-.9.9-.9h.2c.4,0,.6.2.9.5l3.3,4.3v-3.9c0-.5.4-.8.8-.8s.8.4.8.8v6.1c0,.5-.4.9-.9.9h0c-.4,0-.6-.2-.9-.5l-3.4-4.4v4.1c0,.5-.4.8-.8.8s-.8-.4-.8-.8v-6.1h0Z"/>
  <path class="st0" d="M85.4,39.7c0,0-.1.2-.1.3s0,.2.2.3c.1,0,.4.2.8.2.4.1.7.2.9.4.2.2.3.5.3.9s-.1.7-.4.9c-.3.2-.7.4-1.1.4s-1.3-.2-1.8-.7l.6-.7c.5.4.9.6,1.3.6s.3,0,.4-.1c.1,0,.1-.2.1-.3s0-.2-.2-.3c-.1,0-.3-.1-.6-.2-.5-.1-.9-.3-1.1-.5-.2-.2-.3-.5-.3-.9s.1-.7.4-.9c.3-.2.7-.3,1.1-.3s.6,0,.9.1c.3.1.5.2.7.4l-.5.7c-.4-.3-.7-.4-1.2-.4s-.3,0-.4.1M89.1,40.5v1.5c0,.1,0,.2.1.3,0,0,.1.1.2.1.2,0,.3,0,.4-.2l.3.6c-.3.2-.6.4-.9.4s-.6-.1-.8-.3c-.2-.2-.3-.5-.3-.9v-1.5h-.4v-.7h.4v-1h.9v1h.8v.7h-.8,0ZM92.4,40.6c-.3,0-.5,0-.6.3-.1.2-.2.4-.2.8v1.4h-.9v-3.3h.9v.4c.1-.1.3-.2.4-.3s.4-.1.6-.1v.9h-.2ZM95.9,42.6c-.4.4-.8.5-1.3.5s-.9-.2-1.2-.5c-.3-.3-.5-.7-.5-1.2s.2-.9.5-1.2.7-.5,1.2-.5.8.1,1.2.4c.3.3.5.6.5,1.1v.5h-2.4c0,.2.1.3.3.4.2.1.3.2.5.2.3,0,.6-.1.8-.3l.5.6h0ZM95,40.7c-.1-.1-.3-.2-.5-.2s-.4,0-.5.2c-.1.1-.2.2-.2.4h1.4c0-.2,0-.4-.2-.4ZM97.7,41.3v1.8h-.9v-3.3h.9v.4c.3-.3.6-.4.9-.4s.6.1.9.4c.2.2.4.6.4,1v2h-.9v-1.8c0-.5-.2-.7-.6-.7s-.3,0-.5.2-.2.3-.2.6h0ZM103,42.5c-.3.3-.6.5-1.1.5s-.8-.1-1.1-.4c-.3-.3-.4-.7-.4-1.2s.1-.9.4-1.2.6-.5,1-.5.7.2,1,.5v-.4h.9v2.9c0,.3,0,.6-.2.8-.1.2-.2.4-.4.5-.3.3-.7.4-1.2.4s-.5,0-.7-.1c-.2,0-.5-.2-.7-.3l.4-.7c.3.2.6.3,1,.3s.6,0,.8-.2c.2-.2.3-.4.3-.8h0ZM102.9,41.4c0-.2,0-.5-.2-.6s-.3-.2-.6-.2-.4,0-.6.2c-.2.1-.2.4-.2.6s0,.5.2.6c.2.2.3.2.6.2s.4,0,.6-.2c.1-.2.2-.4.2-.6h0ZM105.6,40.5v1.5c0,.1,0,.2.1.3,0,0,.1.1.2.1.2,0,.3,0,.4-.2l.3.6c-.3.2-.6.4-.9.4s-.6-.1-.8-.3c-.2-.2-.3-.5-.3-.9v-1.5h-.4v-.7h.4v-1h.9v1h.8v.7h-.8,0ZM108.1,41.3v1.8h-.9v-4.5h.9v1.6c.3-.3.6-.4.9-.4s.6.1.9.4c.2.2.4.6.4,1v2h-.9v-1.8c0-.5-.2-.7-.6-.7s-.3,0-.5.2-.2.3-.2.6h0ZM112.5,39.4c-.1-.1-.2-.2-.2-.4s0-.3.2-.4c.1-.1.2-.2.4-.2s.3,0,.4.2c.1.1.2.2.2.4s0,.3-.2.4c-.1.1-.2.2-.4.2s-.3,0-.4-.2ZM113.3,43.1h-.9v-3.3h.9v3.3ZM115,41.3v1.8h-.9v-3.3h.9v.4c.3-.3.6-.4.9-.4s.6.1.9.4c.2.2.4.6.4,1v2h-.9v-1.8c0-.5-.2-.7-.6-.7s-.3,0-.5.2-.2.3-.2.6h0ZM122.5,41.5c0,.5-.2.9-.5,1.2s-.7.5-1.2.5-.9-.2-1.2-.5-.5-.7-.5-1.2.2-.9.5-1.2.7-.5,1.2-.5.9.2,1.2.5.5.7.5,1.2ZM119.9,41.5c0,.3,0,.5.2.7.2.2.4.2.6.2s.4,0,.6-.2c.2-.2.2-.4.2-.7s0-.5-.2-.7c-.2-.2-.4-.2-.6-.2s-.4,0-.6.2c-.2.2-.2.4-.2.7ZM125,39.8c.4,0,.7.2,1,.5s.4.7.4,1.2-.1.9-.4,1.2-.6.5-1,.5-.7-.2-1-.5v1.6h-.9v-4.5h.9v.4c.3-.3.6-.4,1-.4h0ZM124,41.5c0,.3,0,.5.2.7.1.2.3.2.6.2s.4,0,.6-.2c.2-.2.2-.4.2-.7s0-.5-.2-.7-.3-.3-.6-.3-.4,0-.6.3c-.1.2-.2.4-.2.7h0ZM128.1,40.5v1.5c0,.1,0,.2.1.3,0,0,.1.1.2.1.2,0,.3,0,.4-.2l.3.6c-.3.2-.6.4-.9.4s-.6-.1-.8-.3c-.2-.2-.3-.5-.3-.9v-1.5h-.4v-.7h.4v-1h.9v1h.8v.7h-.8,0ZM129.7,39.4c-.1-.1-.2-.2-.2-.4s0-.3.2-.4c.1-.1.2-.2.4-.2s.3,0,.4.2c.1.1.2.2.2.4s0,.3-.2.4c-.1.1-.2.2-.4.2s-.3,0-.4-.2ZM130.5,43.1h-.9v-3.3h.9v3.3ZM134.3,41.3v1.8h-.9v-1.8c0-.2,0-.4-.1-.6,0-.1-.2-.2-.4-.2s-.3,0-.5.2-.2.3-.2.6v1.8h-.9v-3.3h.9v.4c.2-.3.6-.4.9-.4s.4,0,.6.2c.2.1.3.3.4.4.1-.2.3-.4.5-.5.2-.1.4-.2.6-.2.4,0,.7.1.9.3s.4.6.4,1v2h-.9v-1.8c0-.5-.2-.7-.6-.7s-.3,0-.5.2-.2.3-.2.6h0ZM137.3,39.4c-.1-.1-.2-.2-.2-.4s0-.3.2-.4c.1-.1.2-.2.4-.2s.3,0,.4.2c.1.1.2.2.2.4s0,.3-.2.4c-.1.1-.2.2-.4.2s-.3,0-.4-.2ZM138.1,43.1h-.9v-3.3h.9v3.3ZM141.4,42.1c0,.3-.1.6-.4.8-.2.2-.6.3-.9.3s-.5,0-.8-.1-.5-.2-.7-.4l.4-.6c.3.3.7.4,1.1.4s.2,0,.3,0c0,0,.1-.1.1-.2s0-.1-.1-.2c0,0-.2-.1-.4-.2s-.3-.1-.4-.1-.2-.1-.3-.2c-.2-.2-.4-.4-.4-.7s.1-.6.4-.7c.2-.2.6-.3.9-.3s.8.1,1.2.4l-.3.6c-.3-.2-.6-.3-.9-.3s-.4,0-.4.2,0,.2.1.2c0,0,.2.1.4.2.2,0,.4.1.4.1s.2,0,.3.2c.2.1.3.4.3.7h0ZM145,41.3v1.8h-.9v-1.8c0-.2,0-.4-.1-.6,0-.1-.2-.2-.4-.2s-.3,0-.5.2-.2.3-.2.6v1.8h-.9v-3.3h.9v.4c.2-.3.6-.4.9-.4s.4,0,.6.2c.2.1.3.3.4.4.1-.2.3-.4.5-.5.2-.1.4-.2.6-.2.4,0,.7.1.9.3s.4.6.4,1v2h-.9v-1.8c0-.5-.2-.7-.6-.7s-.3,0-.5.2-.2.3-.2.6h0ZM147.9,43c-.1-.1-.2-.2-.2-.4s0-.3.2-.4c.1-.1.2-.2.4-.2s.3,0,.4.2c.1.1.2.2.2.4s0,.3-.2.4-.2.2-.4.2-.3,0-.4-.2ZM153.2,38.8h.9v4.2h-.9v-1.7h-1.7v1.7h-1v-4.2h1v1.8h1.7v-1.8ZM158.1,41.5c0,.5-.2.9-.5,1.2s-.7.5-1.2.5-.9-.2-1.2-.5-.5-.7-.5-1.2.2-.9.5-1.2.7-.5,1.2-.5.9.2,1.2.5.5.7.5,1.2ZM155.6,41.5c0,.3,0,.5.2.7.2.2.4.2.6.2s.4,0,.6-.2c.2-.2.2-.4.2-.7s0-.5-.2-.7c-.2-.2-.4-.2-.6-.2s-.4,0-.6.2c-.2.2-.2.4-.2.7ZM160.5,39.8c.4,0,.7.2,1,.5.3.3.4.7.4,1.2s-.1.9-.4,1.2-.6.5-1,.5-.7-.2-1-.5v1.6h-.9v-4.5h.9v.4c.3-.3.6-.4,1-.4h0ZM159.5,41.5c0,.3,0,.5.2.7.1.2.3.2.6.2s.4,0,.6-.2c.2-.2.2-.4.2-.7s0-.5-.2-.7-.3-.3-.6-.3-.4,0-.6.3c-.1.2-.2.4-.2.7h0ZM165.4,42.6c-.4.4-.8.5-1.3.5s-.9-.2-1.2-.5c-.3-.3-.5-.7-.5-1.2s.2-.9.5-1.2.7-.5,1.2-.5.8.1,1.2.4c.3.3.5.6.5,1.1v.5h-2.4c0,.2.1.3.3.4.2.1.3.2.5.2.3,0,.6-.1.8-.3l.5.6h0ZM164.5,40.7c-.1-.1-.3-.2-.5-.2s-.4,0-.5.2c-.1.1-.2.2-.2.4h1.4c0-.2,0-.4-.2-.4ZM167.6,39.4c-.1-.1-.2-.2-.2-.4s0-.3.2-.4c.1-.1.2-.2.4-.2s.3,0,.4.2c.1.1.2.2.2.4s0,.3-.2.4c-.1.1-.2.2-.4.2s-.3,0-.4-.2ZM168.5,43.1h-.9v-3.3h.9v3.3ZM170.2,41.3v1.8h-.9v-3.3h.9v.4c.3-.3.6-.4.9-.4s.6.1.9.4c.2.2.4.6.4,1v2h-.9v-1.8c0-.5-.2-.7-.6-.7s-.3,0-.5.2-.2.3-.2.6h0ZM176.2,39.8c.4,0,.7.2,1,.5s.4.7.4,1.2-.1.9-.4,1.2-.6.5-1,.5-.7-.2-1-.5v1.6h-.9v-4.5h.9v.4c.3-.3.6-.4,1-.4h0ZM175.2,41.5c0,.3,0,.5.2.7.1.2.3.2.6.2s.4,0,.6-.2c.2-.2.2-.4.2-.7s0-.5-.2-.7c-.2-.2-.3-.3-.6-.3s-.4,0-.6.3c-.1.2-.2.4-.2.7h0ZM180.1,40.6c-.3,0-.5,0-.6.3-.1.2-.2.4-.2.8v1.4h-.9v-3.3h.9v.4c.1-.1.3-.2.4-.3s.4-.1.6-.1v.9h-.2ZM184,41.5c0,.5-.2.9-.5,1.2s-.7.5-1.2.5-.9-.2-1.2-.5-.5-.7-.5-1.2.2-.9.5-1.2.7-.5,1.2-.5.9.2,1.2.5.5.7.5,1.2ZM181.4,41.5c0,.3,0,.5.2.7.2.2.4.2.6.2s.4,0,.6-.2c.2-.2.2-.4.2-.7s0-.5-.2-.7c-.2-.2-.4-.2-.6-.2s-.4,0-.6.2c-.2.2-.2.4-.2.7ZM187,42.5c-.3.3-.6.5-1.1.5s-.8-.1-1.1-.4c-.3-.3-.4-.7-.4-1.2s.2-.9.4-1.2c.3-.3.7-.5,1-.5s.7.2,1,.5v-.4h.9v2.9c0,.3,0,.6-.2.8-.1.2-.2.4-.4.5-.3.3-.7.4-1.2.4s-.5,0-.7-.1-.5-.2-.7-.3l.4-.7c.3.2.6.3,1,.3s.6,0,.8-.2c.2-.2.3-.4.3-.8h0ZM186.9,41.4c0-.2,0-.5-.2-.6s-.3-.2-.6-.2-.4,0-.6.2c-.2.1-.2.4-.2.6s0,.5.2.6c.2.2.3.2.6.2s.4,0,.6-.2c.1-.2.2-.4.2-.6h0ZM190.3,40.6c-.3,0-.5,0-.6.3-.1.2-.2.4-.2.8v1.4h-.9v-3.3h.9v.4c.1-.1.3-.2.4-.3s.4-.1.6-.1v.9h-.2ZM193.8,42.6c-.4.4-.8.5-1.3.5s-.9-.2-1.2-.5c-.3-.3-.5-.7-.5-1.2s.2-.9.5-1.2.7-.5,1.2-.5.8.1,1.2.4c.3.3.5.6.5,1.1v.5h-2.4c0,.2.1.3.3.4.2.1.3.2.5.2.3,0,.6-.1.8-.3l.5.6h0ZM193,40.7c-.1-.1-.3-.2-.5-.2s-.4,0-.5.2c-.1.1-.2.2-.3.4h1.4c0-.2,0-.4-.2-.4h0ZM197.1,42.1c0,.3-.1.6-.4.8-.2.2-.6.3-.9.3s-.5,0-.8-.1-.5-.2-.7-.4l.4-.6c.3.3.7.4,1.1.4s.2,0,.3,0c0,0,.1-.1.1-.2s0-.1-.1-.2c0,0-.2-.1-.4-.2s-.3-.1-.4-.1-.2-.1-.3-.2c-.2-.2-.4-.4-.4-.7s.1-.6.4-.7c.2-.2.6-.3.9-.3s.8.1,1.2.4l-.3.6c-.3-.2-.6-.3-.9-.3s-.4,0-.4.2,0,.2.1.2c0,0,.2.1.4.2.2,0,.4.1.4.1s.2,0,.3.2c.2.1.3.4.3.7h0ZM200.2,42.1c0,.3-.1.6-.4.8-.2.2-.6.3-.9.3s-.5,0-.8-.1-.5-.2-.7-.4l.4-.6c.3.3.7.4,1.1.4s.2,0,.3,0c0,0,.1-.1.1-.2s0-.1-.1-.2c0,0-.2-.1-.4-.2s-.3-.1-.4-.1-.2-.1-.3-.2c-.2-.2-.4-.4-.4-.7s.1-.6.4-.7c.2-.2.6-.3.9-.3s.8.1,1.2.4l-.3.6c-.3-.2-.6-.3-.9-.3s-.4,0-.4.2,0,.2.1.2c0,0,.2.1.4.2.2,0,.4.1.4.1s.2,0,.3.2c.2.1.3.4.3.7h0ZM200.8,43c-.1-.1-.2-.2-.2-.4s0-.3.2-.4c.1-.1.2-.2.4-.2s.3,0,.4.2c.1.1.2.2.2.4s0,.3-.2.4c-.1.1-.2.2-.4.2s-.3,0-.4-.2Z"/>
  <path class="st0" d="M27.9,12.4v14.9c0,3.6-2.8,6.8-6.9,6.8s-6.9-3.2-6.9-6.8h0c0-7.7,6-8.3,9.1-10.9v3.6c-3.1,2-5.8,2.7-5.8,7.4h0c0,1.9,1.4,3.8,3.7,3.8s3.8-1.9,3.8-3.8v-14.9c0-1.9-1.1-3.8-3.4-3.8s-3.7,1.9-3.7,3.8v1.5c0,.6-.3.9-.9.9h-1.4c-.6,0-.9-.3-.9-.9v-1.5c0-3.6,2.4-6.8,6.6-6.8s6.9,3.2,6.9,6.8M69.6,5.7c-4.1,0-6.6,3.2-6.6,6.8v1.5c0,.6.3.9.9.9h1.4c.6,0,.9-.3.9-.9v-1.5c0-1.9,1.4-3.8,3.7-3.8s3.4,1.9,3.4,3.8v14.9c0,1.9-1.4,3.8-3.8,3.8s-3.7-1.9-3.7-3.8h0c0-4.7,2.7-5.4,5.8-7.4v-3.6c-3.1,2.7-9.1,3.2-9.1,10.9h0c0,3.6,2.8,6.8,6.9,6.8s6.9-3.2,6.9-6.8v-14.9c0-3.6-2.8-6.8-6.9-6.8h0ZM37.4,5.7c-4.1,0-6.9,3.2-6.9,6.8v26c0,.6.3.9.9.9h1.4c.6,0,.9-.3.9-.9V12.4c0-1.9,1.4-3.8,3.7-3.8s3.7,1.9,3.7,3.8v14.9c0,1.9-1.4,3.8-3.7,3.8s-1.6-.2-2.1-.7v3.3c.7.2,1.4.3,2.1.3,4.1,0,6.9-3.2,6.9-6.8v-14.9c0-3.6-2.8-6.8-6.9-6.8h0ZM59.8.4h-1.4c-.6,0-.9.3-.9.9v26c0,1.9-1.4,3.8-3.7,3.8s-3.7-1.9-3.7-3.8v-14.9c0-1.9,1.4-3.8,3.7-3.8s1.6.3,2.2.7v-3.3c-.7-.2-1.4-.3-2.2-.3-4.1,0-6.9,3.2-6.9,6.8v14.9c0,3.6,2.8,6.8,6.9,6.8s6.9-3.2,6.9-6.8V1.4c0-.6-.3-.9-.9-.9h0Z"/>
</svg>