<?xml version="1.0" encoding="UTF-8"?>
<svg id="Layer_1" xmlns="http://www.w3.org/2000/svg" version="1.1" viewBox="0 0 216 45">
  <!-- Generator: Adobe Illustrator 29.8.9, SVG Export Plug-In . SVG Version: 2.1.1 Build 1)  -->
  <defs>
    <style>
      .st0 {
        fill: #fff;
      }
    </style>
  </defs>
  <path class="st0" d="M12.5,20c0-3.2,2.3-5.8,5.1-5.8s5.1,2.6,5.1,5.8-2.3,5.8-5.1,5.8-5.1-2.6-5.1-5.8ZM12.8,40v-4.4c-4.7-3.8-6.8-8.1-6.8-12.2,0-6.4,4.5-11.1,10.9-14V2.2C5.3,7.1,0,14.8,0,23s4.9,12.7,12.8,17ZM19.3,37.2c11.4-3.8,18.1-10.7,18.1-19.2S34.1,4.2,22.7,0v6c1.1.7,2.2,1.3,3.1,1.9,3,2.5,5,5.6,5,9.5,0,7.3-6.9,12.7-15.3,15.9h0c0,.1,0,.1,0,.1v9.9h3.7v-6.2Z"/>
  <path class="st0" d="M50.9,35.4v2.2h3.7v1.6h-3.7v3.7h-1.8v-9.1h6.2v1.6h-4.4Z"/>
  <path class="st0" d="M61.2,42.2c-.4.4-1.1.8-2.1.8s-1.7-.4-2.1-.8c-.6-.6-.8-1.4-.8-2.6s.2-2,.8-2.6c.4-.4,1.1-.8,2.1-.8s1.7.4,2.1.8c.6.6.8,1.4.8,2.6s-.2,2-.8,2.6ZM59.9,38c-.2-.2-.5-.3-.8-.3s-.6.1-.8.3c-.4.3-.4.9-.4,1.6s0,1.3.4,1.6c.2.2.4.3.8.3s.6-.1.8-.3c.4-.3.4-.9.4-1.6s0-1.3-.4-1.6Z"/>
  <path class="st0" d="M67.7,43v-.6c-.4.5-1.1.7-1.7.7s-1.2-.2-1.6-.6c-.6-.5-.7-1.2-.7-1.9v-4.3h1.7v4c0,.9.6,1.2,1.1,1.2s1.1-.3,1.1-1.2v-4h1.7v6.7h-1.7Z"/>
  <path class="st0" d="M75.5,43v-4c0-.9-.6-1.2-1.1-1.2s-1.1.3-1.1,1.2v4h-1.7v-6.7h1.7v.6c.4-.5,1.1-.7,1.7-.7s1.2.2,1.6.6c.6.5.7,1.2.7,1.9v4.3h-1.7Z"/>
  <path class="st0" d="M82.9,43v-.6c-.5.5-1,.7-1.7.7s-1.3-.2-1.7-.6c-.7-.7-.7-1.8-.7-2.8s0-2.1.7-2.8c.4-.4,1-.6,1.7-.6s1.2.2,1.7.7v-3h1.7v9.1h-1.7ZM81.7,37.7c-1,0-1.2.8-1.2,1.9s.1,1.9,1.2,1.9,1.2-.8,1.2-1.9-.1-1.9-1.2-1.9Z"/>
  <path class="st0" d="M90.2,43v-.6c-.5.5-.9.6-1.7.6s-1.3-.2-1.8-.6c-.4-.4-.6-.9-.6-1.5,0-1.1.8-1.9,2.3-1.9h1.6v-.3c0-.7-.4-1.1-1.3-1.1s-1,.2-1.3.6l-1.1-1c.7-.7,1.3-.9,2.5-.9,1.9,0,2.9.8,2.9,2.4v4.4h-1.7ZM90.2,40.1h-1.4c-.6,0-1,.3-1,.8s.3.8,1,.8.8,0,1.1-.3c.2-.2.3-.4.3-.8v-.4h0Z"/>
  <path class="st0" d="M96,43c-1.4,0-2-1-2-1.9v-3.3h-.7v-1.3h.7v-2h1.7v2h1.2v1.3h-1.2v3.2c0,.4.2.6.6.6h.6v1.4h-.9Z"/>
  <path class="st0" d="M98.6,35.1v-1.4h1.8v1.4h-1.8ZM98.6,43v-6.7h1.7v6.7h-1.7Z"/>
  <path class="st0" d="M107.1,42.2c-.4.4-1.1.8-2.1.8s-1.7-.4-2.1-.8c-.6-.6-.8-1.4-.8-2.6s.2-2,.8-2.6c.4-.4,1.1-.8,2.1-.8s1.7.4,2.1.8c.6.6.8,1.4.8,2.6s-.2,2-.8,2.6ZM105.8,38c-.2-.2-.5-.3-.8-.3s-.6.1-.8.3c-.4.3-.4.9-.4,1.6s0,1.3.4,1.6c.2.2.4.3.8.3s.6-.1.8-.3c.4-.3.4-.9.4-1.6s0-1.3-.4-1.6Z"/>
  <path class="st0" d="M113.7,43v-4c0-.9-.6-1.2-1.1-1.2s-1.1.3-1.1,1.2v4h-1.7v-6.7h1.7v.6c.4-.5,1.1-.7,1.7-.7s1.2.2,1.6.6c.6.5.7,1.2.7,1.9v4.3h-1.7Z"/>
  <path class="st0" d="M122.6,37.7v5.2h-1.7v-5.2h-.7v-1.3h.7v-.8c0-1,.6-1.9,2-1.9h1v1.4h-.7c-.4,0-.6.2-.6.6v.7h1.3v1.3h-1.3,0Z"/>
  <path class="st0" d="M129.9,42.2c-.4.4-1.1.8-2.1.8s-1.7-.4-2.1-.8c-.6-.6-.8-1.4-.8-2.6s.2-2,.8-2.6c.4-.4,1.1-.8,2.1-.8s1.7.4,2.1.8c.6.6.8,1.4.8,2.6s-.2,2-.8,2.6ZM128.6,38c-.2-.2-.5-.3-.8-.3s-.6.1-.8.3c-.4.3-.4.9-.4,1.6s0,1.3.4,1.6c.2.2.4.3.8.3s.6-.1.8-.3c.4-.3.4-.9.4-1.6s0-1.3-.4-1.6Z"/>
  <path class="st0" d="M136.2,38.1c-.3-.3-.5-.4-.9-.4s-1.1.4-1.1,1.2v4h-1.7v-6.7h1.7v.6c.3-.4,1-.7,1.7-.7s1.1.2,1.6.6l-1.3,1.3Z"/>
  <path class="st0" d="M145.7,39.5h-1.8v3.4h-1.8v-9.1h3.6c1.9,0,3.1,1.3,3.1,2.9s-1.2,2.9-3.1,2.9h0ZM145.6,35.4h-1.7v2.5h1.7c.8,0,1.4-.5,1.4-1.2s-.5-1.3-1.4-1.3h0Z"/>
  <path class="st0" d="M153.7,43v-.6c-.5.5-.9.6-1.7.6s-1.3-.2-1.8-.6c-.4-.4-.6-.9-.6-1.5,0-1.1.8-1.9,2.3-1.9h1.6v-.3c0-.7-.4-1.1-1.3-1.1s-1,.2-1.3.6l-1.1-1c.7-.7,1.3-.9,2.5-.9,1.9,0,2.9.8,2.9,2.4v4.4h-1.7ZM153.7,40.1h-1.4c-.6,0-1,.3-1,.8s.3.8,1,.8.8,0,1.1-.3c.2-.2.3-.4.3-.8v-.4h0Z"/>
  <path class="st0" d="M161.1,38.1c-.3-.3-.5-.4-.9-.4s-1.1.4-1.1,1.2v4h-1.7v-6.7h1.7v.6c.3-.4,1-.7,1.7-.7s1.1.2,1.6.6l-1.3,1.3Z"/>
  <path class="st0" d="M167.6,43l-1.7-2.8-.7.8v2h-1.7v-9.1h1.7v5.2l2.3-2.7h2.1l-2.5,2.7,2.6,4h-2.1Z"/>
  <path class="st0" d="M171,35.1v-1.4h1.8v1.4h-1.8ZM171,43v-6.7h1.7v6.7h-1.7Z"/>
  <path class="st0" d="M178.8,43v-4c0-.9-.6-1.2-1.1-1.2s-1.1.3-1.1,1.2v4h-1.7v-6.7h1.7v.6c.4-.5,1.1-.7,1.7-.7s1.2.2,1.6.6c.6.5.7,1.2.7,1.9v4.3h-1.7Z"/>
  <path class="st0" d="M184.7,43c-1.1,0-2.1-.1-2.9-1l1.1-1.1c.6.6,1.3.6,1.8.6s1.2-.2,1.2-.7-.2-.6-.7-.6h-1.1c-1.2-.2-2-.7-2-2s1.3-2.1,2.7-2.1,2,.2,2.6.8l-1.1,1c-.4-.3-1-.5-1.6-.5s-1,.3-1,.6.1.5.7.6h1.1c1.4.2,2,.9,2,2.1s-1.3,2.2-2.9,2.2h0Z"/>
  <path class="st0" d="M194,42.2c-.4.4-1.1.8-2.1.8s-1.7-.4-2.1-.8c-.6-.6-.8-1.4-.8-2.6s.2-2,.8-2.6c.4-.4,1.1-.8,2.1-.8s1.7.4,2.1.8c.6.6.8,1.4.8,2.6s-.2,2-.8,2.6ZM192.6,38c-.2-.2-.5-.3-.8-.3s-.6.1-.8.3c-.4.3-.4.9-.4,1.6s0,1.3.4,1.6c.2.2.4.3.8.3s.6-.1.8-.3c.4-.3.4-.9.4-1.6s0-1.3-.4-1.6Z"/>
  <path class="st0" d="M200.5,43v-4c0-.9-.6-1.2-1.1-1.2s-1.1.3-1.1,1.2v4h-1.7v-6.7h1.7v.6c.4-.5,1.1-.7,1.7-.7s1.2.2,1.6.6c.6.5.7,1.2.7,1.9v4.3h-1.7Z"/>
  <path class="st0" d="M203.5,37.4l1.2-2.5.2,1.1c-.3,0-.6-.1-.8-.3-.2-.2-.3-.4-.3-.7s0-.4.2-.6c.1-.2.3-.3.5-.4.2-.1.4-.2.6-.2.3,0,.6.1.8.3.2.2.3.4.3.7s0,.3,0,.4c0,.1-.2.3-.3.6l-1,1.6h-1.2Z"/>
  <path class="st0" d="M209,43c-1.1,0-2.1-.1-2.9-1l1.1-1.1c.6.6,1.3.6,1.8.6s1.2-.2,1.2-.7-.2-.6-.7-.6h-1.1c-1.2-.2-2-.7-2-2s1.3-2.1,2.7-2.1,2,.2,2.6.8l-1.1,1c-.4-.3-1-.5-1.6-.5s-1,.3-1,.6.1.5.7.6h1.1c1.4.2,2,.9,2,2.1s-1.3,2.2-2.9,2.2h0Z"/>
  <path class="st0" d="M52.8,25.7h1.7c2.1,0,2.9-1,2.9-3.2v-12.2c0-2-.7-3.1-2.9-3.1h-1.7v18.5ZM49.1,3.8h5.5c4.2,0,6.6,2.5,6.6,6.6v11.9c0,4.7-2.5,7-6.9,7h-5.2V3.8ZM69.7,11.1h0l-1.8,9.2h3.7l-1.8-9.2h0ZM68.2,3.8h3.1l5.8,25.4h-3.7l-1.1-5.5h-5.1l-1.1,5.5h-3.7l5.8-25.4ZM84.9,29.2h-3.3l-5.3-25.4h4l3,17.7h0l3-17.7h4l-5.3,25.4h0ZM92.6,3.8h3.7v25.4h-3.7V3.8ZM112,11.1h-3.7v-.8c0-1.7-.7-3.1-2.6-3.1s-2.5,1.6-2.5,3.3.2,2.6,2.1,3.4l2.9,1.1c3.3,1.2,3.9,3.2,3.9,7s-1.6,7.4-6.4,7.4-6.4-2.6-6.4-6v-1.4h3.7v1.1c0,1.3.7,2.6,2.6,2.6s2.7-1.5,2.7-3.8-.3-3.1-2.2-3.8l-2.7-1.1c-3.2-1.3-4.1-3.4-4.1-6.5s2.1-7,6.4-7,6.2,2.9,6.2,5.7v1.8h0ZM124.3,15.8h1.8c3,0,3.1-1.7,3.1-4.3s0-4.3-2.9-4.3h-1.9v8.6h0ZM120.5,3.8h5.6c2.1,0,3.6.5,4.8,1.8,1.3,1.3,1.7,2.9,1.7,6s-.2,3.7-1.1,5.1c-1,1.6-2.7,2.6-5.4,2.6h-1.9v9.9h-3.7V3.8ZM134.9,3.8h3.7v10.9h4.6V3.8h3.7v25.4h-3.7v-11.3h-4.6v11.3h-3.7V3.8ZM150,3.8h3.7v25.4h-3.7V3.8ZM157.2,3.8h3.6l5.6,15.3h0V3.8h3.7v25.4h-3.5l-5.7-15.3h0v15.3h-3.7V3.8ZM173.5,3.8h3.6l5.6,15.3h0V3.8h3.7v25.4h-3.5l-5.7-15.3h0v15.3h-3.7V3.8ZM189.4,3.8h11.1v3.4h-7.4v7.5h6.4v3.4h-6.4v7.5h7.4v3.6h-11.1V3.8ZM207.1,18.4l-5.1-14.7h3.9l3,10.1h0l3-10.1h3.9l-5.1,14.7v10.7h-3.7v-10.7h0Z"/>
</svg>