<svg width="216" height="45" viewBox="0 0 216 45" fill="none" xmlns="http://www.w3.org/2000/svg">
<path d="M12.48 19.9901C12.48 16.7768 14.7632 14.1718 17.5784 14.1718C20.3935 14.1718 22.6768 16.7768 22.6768 19.9901C22.6768 23.2035 20.3935 25.8085 17.5784 25.8085C14.7632 25.8085 12.48 23.2035 12.48 19.9901ZM12.8173 40.0056V35.6387C8.08865 31.8739 6 27.5514 6 23.4697C6 17.1 10.547 12.4099 16.8778 9.51338V2.21831C5.26054 7.13662 0 14.831 0 22.9754C0 29.0662 4.93622 35.6577 12.8173 40.0056ZM19.2584 37.1535C30.7005 33.338 37.3362 26.493 37.3362 17.9113C37.3362 10.8254 34.067 4.19577 22.7481 0V5.97676C23.8703 6.64225 24.9081 7.28239 25.8551 7.90986C28.8714 10.388 30.9016 13.5507 30.9016 17.4486C30.9016 24.7754 23.9935 30.169 15.6259 33.3V33.4014H15.6V43.3141H19.2584V37.1535Z" fill="#659CD3"/>
<path d="M50.9451 35.3979V37.6479H54.6553V39.2387H50.9451V42.9528H49.1094V33.807H55.2975V35.3979H50.9451Z" fill="#659CD3"/>
<path d="M61.2129 42.2113C60.7912 42.6486 60.0907 43.0352 59.0723 43.0352C58.0539 43.0352 57.3729 42.6486 56.9512 42.2113C56.3285 41.5838 56.1729 40.8232 56.1729 39.6C56.1729 38.3768 56.3285 37.6352 56.9512 37.0078C57.3729 36.5704 58.0604 36.1838 59.0723 36.1838C60.0842 36.1838 60.7847 36.5704 61.2129 37.0078C61.8356 37.6352 61.9912 38.3958 61.9912 39.6C61.9912 40.8042 61.8356 41.5775 61.2129 42.2113ZM59.8766 37.9838C59.6756 37.7937 59.4161 37.6859 59.0723 37.6859C58.7285 37.6859 58.4756 37.7873 58.281 37.9838C57.9242 38.3324 57.8853 38.9092 57.8853 39.6C57.8853 40.2908 57.9242 40.8866 58.281 41.2352C58.482 41.4254 58.7285 41.5331 59.0723 41.5331C59.4161 41.5331 59.682 41.4317 59.8766 41.2352C60.2334 40.8866 60.2723 40.2972 60.2723 39.6C60.2723 38.9028 60.2334 38.3261 59.8766 37.9838Z" fill="#659CD3"/>
<path d="M67.7192 42.9528V42.338C67.2716 42.8007 66.6359 43.0289 66.0067 43.0289C65.3192 43.0289 64.7678 42.8134 64.3851 42.4394C63.8338 41.9007 63.6846 41.2669 63.6846 40.538V36.2599H65.397V40.3099C65.397 41.2225 65.9938 41.5331 66.5321 41.5331C67.0705 41.5331 67.6802 41.2225 67.6802 40.3099V36.2599H69.3927V42.9528H67.7192Z" fill="#659CD3"/>
<path d="M75.4508 42.9528V38.9028C75.4508 37.9901 74.854 37.6796 74.3156 37.6796C73.7772 37.6796 73.1675 37.9901 73.1675 38.9028V42.9528H71.4551V36.2599H73.1286V36.8746C73.5762 36.412 74.2118 36.1775 74.841 36.1775C75.5286 36.1775 76.0799 36.393 76.4626 36.7669C77.014 37.3056 77.1632 37.9394 77.1632 38.6683V42.9465H75.4508V42.9528Z" fill="#659CD3"/>
<path d="M82.9429 42.9528V42.3253C82.4694 42.8387 81.97 43.0289 81.2435 43.0289C80.5689 43.0289 79.9397 42.8007 79.557 42.4268C78.8694 41.7613 78.8564 40.6014 78.8564 39.6C78.8564 38.5986 78.8694 37.4514 79.557 36.7859C79.9397 36.412 80.5624 36.1838 81.2305 36.1838C81.8986 36.1838 82.4564 36.3613 82.904 36.8493V33.807H84.6164V42.9528H82.9429ZM81.73 37.6859C80.6986 37.6859 80.5689 38.5099 80.5689 39.6C80.5689 40.6901 80.6986 41.5268 81.73 41.5268C82.7613 41.5268 82.904 40.6901 82.904 39.6C82.904 38.5099 82.7613 37.6859 81.73 37.6859Z" fill="#659CD3"/>
<path d="M90.2017 42.9528V42.3761C89.7411 42.8261 89.3065 43.0162 88.5152 43.0162C87.7238 43.0162 87.1725 42.8261 86.7573 42.4268C86.3876 42.0528 86.1865 41.5141 86.1865 40.9247C86.1865 39.8599 86.939 38.9852 88.5346 38.9852H90.1563V38.6493C90.1563 37.9141 89.7865 37.5972 88.8784 37.5972C88.2168 37.5972 87.9184 37.7493 87.5617 38.1486L86.4654 37.1092C87.14 36.3866 87.7952 36.1838 88.9433 36.1838C90.8698 36.1838 91.8752 36.9824 91.8752 38.5479V42.9528H90.2017ZM90.1627 40.1261H88.8071C88.1844 40.1261 87.8406 40.4113 87.8406 40.8866C87.8406 41.362 88.1584 41.6599 88.833 41.6599C89.3065 41.6599 89.6114 41.6218 89.9163 41.3366C90.0979 41.1718 90.1692 40.8993 90.1692 40.4873V40.1261H90.1627Z" fill="#659CD3"/>
<path d="M96.0069 42.9528C94.6058 42.9528 94.0155 41.9894 94.0155 41.0387V37.7239H93.2891V36.45H94.0155V34.4725H95.728V36.45H96.9409V37.7239H95.728V40.9373C95.728 41.3239 95.9096 41.5394 96.3247 41.5394H96.9474V42.9528H96.0134H96.0069Z" fill="#659CD3"/>
<path d="M98.6074 35.119V33.7563H100.365V35.119H98.6074ZM98.6334 42.9528V36.2599H100.346V42.9528H98.6334Z" fill="#659CD3"/>
<path d="M107.144 42.2113C106.722 42.6486 106.021 43.0352 105.003 43.0352C103.985 43.0352 103.304 42.6486 102.882 42.2113C102.259 41.5838 102.104 40.8232 102.104 39.6C102.104 38.3768 102.259 37.6352 102.882 37.0078C103.304 36.5704 103.991 36.1838 105.003 36.1838C106.015 36.1838 106.715 36.5704 107.144 37.0078C107.766 37.6352 107.922 38.3958 107.922 39.6C107.922 40.8042 107.766 41.5775 107.144 42.2113ZM105.814 37.9838C105.613 37.7937 105.353 37.6859 105.009 37.6859C104.666 37.6859 104.413 37.7873 104.218 37.9838C103.861 38.3324 103.822 38.9092 103.822 39.6C103.822 40.2908 103.861 40.8866 104.218 41.2352C104.419 41.4254 104.666 41.5331 105.009 41.5331C105.353 41.5331 105.619 41.4317 105.814 41.2352C106.171 40.8866 106.209 40.2972 106.209 39.6C106.209 38.9028 106.171 38.3261 105.814 37.9838Z" fill="#659CD3"/>
<path d="M113.689 42.9528V38.9028C113.689 37.9901 113.092 37.6796 112.554 37.6796C112.016 37.6796 111.406 37.9901 111.406 38.9028V42.9528H109.693V36.2599H111.367V36.8746C111.814 36.412 112.45 36.1775 113.079 36.1775C113.767 36.1775 114.318 36.393 114.701 36.7669C115.252 37.3056 115.401 37.9394 115.401 38.6683V42.9465H113.689V42.9528Z" fill="#659CD3"/>
<path d="M122.64 37.7239V42.9528H120.927V37.7239H120.214V36.45H120.927V35.6134C120.927 34.6627 121.537 33.6993 122.932 33.6993H123.905V35.1127H123.23C122.821 35.1127 122.633 35.3345 122.633 35.7148V36.4437H123.898V37.7176H122.633L122.64 37.7239Z" fill="#659CD3"/>
<path d="M129.893 42.2113C129.471 42.6486 128.77 43.0352 127.752 43.0352C126.734 43.0352 126.053 42.6486 125.631 42.2113C125.008 41.5838 124.853 40.8232 124.853 39.6C124.853 38.3768 125.008 37.6352 125.631 37.0078C126.053 36.5704 126.74 36.1838 127.752 36.1838C128.764 36.1838 129.464 36.5704 129.893 37.0078C130.515 37.6352 130.671 38.3958 130.671 39.6C130.671 40.8042 130.515 41.5775 129.893 42.2113ZM128.563 37.9838C128.362 37.7937 128.102 37.6859 127.758 37.6859C127.415 37.6859 127.162 37.7873 126.967 37.9838C126.61 38.3324 126.571 38.9092 126.571 39.6C126.571 40.2908 126.61 40.8866 126.967 41.2352C127.168 41.4254 127.415 41.5331 127.758 41.5331C128.102 41.5331 128.368 41.4317 128.563 41.2352C128.92 40.8866 128.958 40.2972 128.958 39.6C128.958 38.9028 128.92 38.3261 128.563 37.9838Z" fill="#659CD3"/>
<path d="M136.177 38.0852C135.911 37.8254 135.691 37.6859 135.269 37.6859C134.743 37.6859 134.16 38.0725 134.16 38.9218V42.9592H132.447V36.2662H134.121V36.9063C134.452 36.5197 135.113 36.1838 135.846 36.1838C136.521 36.1838 136.994 36.3486 137.468 36.8113L136.177 38.0852Z" fill="#659CD3"/>
<path d="M145.681 39.5113H143.871V42.9528H142.035V33.807H145.674C147.614 33.807 148.775 35.1063 148.775 36.6592C148.775 38.212 147.614 39.5113 145.674 39.5113H145.681ZM145.583 35.3979H143.871V37.9014H145.583C146.414 37.9014 146.939 37.4007 146.939 36.6528C146.939 35.9049 146.414 35.3915 145.583 35.3915V35.3979Z" fill="#659CD3"/>
<path d="M153.71 42.9528V42.3761C153.25 42.8261 152.815 43.0162 152.024 43.0162C151.233 43.0162 150.681 42.8261 150.266 42.4268C149.896 42.0528 149.695 41.5141 149.695 40.9247C149.695 39.8599 150.448 38.9852 152.043 38.9852H153.665V38.6493C153.665 37.9141 153.295 37.5972 152.387 37.5972C151.726 37.5972 151.427 37.7493 151.07 38.1486L149.974 37.1092C150.649 36.3866 151.304 36.1838 152.452 36.1838C154.379 36.1838 155.384 36.9824 155.384 38.5479V42.9528H153.71ZM153.672 40.1261H152.316C151.693 40.1261 151.349 40.4113 151.349 40.8866C151.349 41.362 151.667 41.6599 152.342 41.6599C152.815 41.6599 153.12 41.6218 153.425 41.3366C153.607 41.1718 153.678 40.8993 153.678 40.4873V40.1261H153.672Z" fill="#659CD3"/>
<path d="M161.105 38.0852C160.839 37.8254 160.618 37.6859 160.197 37.6859C159.671 37.6859 159.087 38.0725 159.087 38.9218V42.9592H157.375V36.2662H159.049V36.9063C159.379 36.5197 160.041 36.1838 160.774 36.1838C161.449 36.1838 161.922 36.3486 162.396 36.8113L161.105 38.0852Z" fill="#659CD3"/>
<path d="M167.637 42.9528L165.951 40.1641L165.224 40.9627V42.9528H163.512V33.807H165.224V38.9979L167.507 36.2599H169.577L167.125 38.9599L169.765 42.9528H167.637Z" fill="#659CD3"/>
<path d="M170.984 35.119V33.7563H172.742V35.119H170.984ZM171.01 42.9528V36.2599H172.723V42.9528H171.01Z" fill="#659CD3"/>
<path d="M178.768 42.9528V38.9028C178.768 37.9901 178.171 37.6796 177.633 37.6796C177.095 37.6796 176.485 37.9901 176.485 38.9028V42.9528H174.772V36.2599H176.446V36.8746C176.894 36.412 177.529 36.1775 178.158 36.1775C178.846 36.1775 179.397 36.393 179.78 36.7669C180.331 37.3056 180.481 37.9394 180.481 38.6683V42.9465H178.768V42.9528Z" fill="#659CD3"/>
<path d="M184.722 43.0289C183.639 43.0289 182.666 42.9148 181.79 42.0655L182.912 40.9754C183.477 41.5268 184.216 41.6028 184.748 41.6028C185.345 41.6028 185.961 41.4127 185.961 40.9056C185.961 40.5697 185.779 40.3416 185.234 40.2908L184.151 40.1894C182.912 40.0754 182.147 39.5493 182.147 38.3134C182.147 36.9254 183.399 36.1775 184.8 36.1775C185.87 36.1775 186.765 36.3549 187.427 36.9634L186.369 38.0028C185.974 37.6542 185.364 37.5528 184.774 37.5528C184.086 37.5528 183.801 37.8634 183.801 38.193C183.801 38.4401 183.905 38.719 184.514 38.7697L185.598 38.8711C186.953 38.9979 187.641 39.7077 187.641 40.8359C187.641 42.3127 186.35 43.0225 184.722 43.0225V43.0289Z" fill="#659CD3"/>
<path d="M193.959 42.2113C193.537 42.6486 192.837 43.0352 191.818 43.0352C190.8 43.0352 190.119 42.6486 189.697 42.2113C189.075 41.5838 188.919 40.8232 188.919 39.6C188.919 38.3768 189.075 37.6352 189.697 37.0078C190.119 36.5704 190.807 36.1838 191.818 36.1838C192.83 36.1838 193.531 36.5704 193.959 37.0078C194.582 37.6352 194.737 38.3958 194.737 39.6C194.737 40.8042 194.582 41.5775 193.959 42.2113ZM192.629 37.9838C192.428 37.7937 192.169 37.6859 191.825 37.6859C191.481 37.6859 191.228 37.7873 191.034 37.9838C190.677 38.3324 190.638 38.9092 190.638 39.6C190.638 40.2908 190.677 40.8866 191.034 41.2352C191.235 41.4254 191.481 41.5331 191.825 41.5331C192.169 41.5331 192.435 41.4317 192.629 41.2352C192.986 40.8866 193.025 40.2972 193.025 39.6C193.025 38.9028 192.986 38.3261 192.629 37.9838Z" fill="#659CD3"/>
<path d="M200.503 42.9528V38.9028C200.503 37.9901 199.907 37.6796 199.368 37.6796C198.83 37.6796 198.22 37.9901 198.22 38.9028V42.9528H196.508V36.2599H198.181V36.8746C198.629 36.412 199.265 36.1775 199.894 36.1775C200.581 36.1775 201.133 36.393 201.515 36.7669C202.067 37.3056 202.216 37.9394 202.216 38.6683V42.9465H200.503V42.9528Z" fill="#659CD3"/>
<path d="M203.507 37.3563L204.681 34.8275L204.882 35.9239C204.558 35.9239 204.292 35.8225 204.084 35.6261C203.877 35.4296 203.766 35.1887 203.766 34.9099C203.766 34.6754 203.825 34.4725 203.941 34.2887C204.058 34.1049 204.214 33.9655 204.408 33.8577C204.603 33.7563 204.817 33.6993 205.044 33.6993C205.375 33.6993 205.641 33.8007 205.848 34.0035C206.056 34.2063 206.16 34.4535 206.16 34.7514C206.16 34.9035 206.127 35.0556 206.069 35.1951C206.004 35.3408 205.9 35.5373 205.738 35.7845L204.726 37.35H203.513L203.507 37.3563Z" fill="#659CD3"/>
<path d="M208.989 43.0289C207.905 43.0289 206.932 42.9148 206.057 42.0655L207.179 40.9754C207.743 41.5268 208.483 41.6028 209.014 41.6028C209.611 41.6028 210.227 41.4127 210.227 40.9056C210.227 40.5697 210.046 40.3416 209.501 40.2908L208.418 40.1894C207.179 40.0754 206.413 39.5493 206.413 38.3134C206.413 36.9254 207.665 36.1775 209.066 36.1775C210.137 36.1775 211.032 36.3549 211.693 36.9634L210.636 38.0028C210.24 37.6542 209.631 37.5528 209.04 37.5528C208.353 37.5528 208.067 37.8634 208.067 38.193C208.067 38.4401 208.171 38.719 208.781 38.7697L209.864 38.8711C211.22 38.9979 211.907 39.7077 211.907 40.8359C211.907 42.3127 210.617 43.0225 208.989 43.0225V43.0289Z" fill="#659CD3"/>
<path d="M52.845 25.7324H54.5639C56.6525 25.7324 57.4569 24.7373 57.4569 22.557V10.331C57.4569 8.33451 56.7628 7.19366 54.5639 7.19366H52.845V25.7324ZM49.1152 3.77747H54.6417C58.8514 3.77747 61.1931 6.23662 61.1931 10.3373V22.2085C61.1931 26.9113 58.7023 29.1613 54.3109 29.1613H49.1152V3.77747ZM69.7487 11.0852H69.6774L67.8482 20.2817H71.5844L69.7552 11.0852H69.7487ZM68.1725 3.77747H71.286L77.1044 29.1549H73.3682L72.272 23.7042H67.1866L66.0904 29.1549H62.3541L68.1725 3.77747ZM84.9077 29.1549H81.6125L76.3066 3.77747H80.2569L83.2212 21.4923H83.2925L86.2958 3.77747H90.246L84.9012 29.1549H84.9077ZM92.5942 3.77747H96.3304V29.1549H92.5942V3.77747ZM112.028 11.0852H108.291V10.2676C108.291 8.58803 107.558 7.2 105.658 7.2C103.608 7.2 103.135 8.80352 103.135 10.4768C103.135 12.4352 103.316 13.1134 105.256 13.8613L108.11 14.9641C111.405 16.1747 112.028 18.2092 112.028 21.9169C112.028 26.1951 110.419 29.3641 105.587 29.3641C101.961 29.3641 99.2169 26.7592 99.2169 23.343V21.9866H102.953V23.1275C102.953 24.4458 103.686 25.7324 105.587 25.7324C108.11 25.7324 108.298 24.2747 108.298 21.9549C108.298 19.2486 107.967 18.8176 106.138 18.1077L103.465 17.0366C100.242 15.7563 99.405 13.6838 99.405 10.5148C99.405 6.66761 101.526 3.56197 105.814 3.56197C109.55 3.56197 112.034 6.4838 112.034 9.30423V11.0852H112.028ZM124.255 15.8261H126.045C129.087 15.8261 129.12 14.0831 129.12 11.5479C129.12 9.15845 129.12 7.2 126.188 7.2H124.248V15.8261H124.255ZM120.518 3.77747H126.116C128.166 3.77747 129.671 4.24014 130.949 5.55845C132.233 6.87676 132.635 8.48028 132.635 11.5099C132.635 13.7218 132.454 15.2176 131.571 16.6056C130.547 18.2472 128.899 19.2423 126.155 19.2423H124.248V29.1549H120.518V3.77747ZM134.873 3.77747H138.609V14.6472H143.221V3.77747H146.957V29.1549H143.221V17.8542H138.609V29.1549H134.873V3.77747ZM150.025 3.77747H153.762V29.1549H150.025V3.77747ZM157.232 3.77747H160.819L166.456 19.0711H166.527V3.77747H170.263V29.1549H166.748L161.04 13.8993H160.968V29.1549H157.232V3.77747ZM173.487 3.77747H177.074L182.711 19.0711H182.782V3.77747H186.518V29.1549H183.003L177.295 13.8993H177.223V29.1549H173.487V3.77747ZM189.418 3.77747H200.549V7.2H193.154V14.6535H199.595V18.0761H193.154V25.5296H200.549V29.1676H189.418V3.77747ZM207.139 18.4247L202.015 3.77113H205.965L208.968 13.8613H209.04L212.043 3.77113H215.993L210.869 18.4247V29.1549H207.133V18.4247H207.139Z" fill="#213A5E"/>
</svg>
