<svg preserveAspectRatio="none" width="100%" height="100%" overflow="visible" style="display: block;" viewBox="0 0 22 21" fill="none" xmlns="http://www.w3.org/2000/svg">
<path id="Vector" d="M6.41488 0C2.87746 0 0 2.74921 0 6.12671V14.8767C0 18.2533 2.88012 21 6.41846 21H15.5851C19.1225 21 22 18.2508 22 14.8733V6.12329C22 2.74667 19.1199 0 15.5815 0H6.41488ZM17.4167 3.5C17.9227 3.5 18.3333 3.892 18.3333 4.375C18.3333 4.858 17.9227 5.25 17.4167 5.25C16.9107 5.25 16.5 4.858 16.5 4.375C16.5 3.892 16.9107 3.5 17.4167 3.5ZM11 5.25C14.0333 5.25 16.5 7.60462 16.5 10.5C16.5 13.3954 14.0333 15.75 11 15.75C7.96675 15.75 5.5 13.3954 5.5 10.5C5.5 7.60462 7.96675 5.25 11 5.25ZM11 7C10.0275 7 9.09491 7.36875 8.40728 8.02513C7.71964 8.6815 7.33333 9.57174 7.33333 10.5C7.33333 11.4283 7.71964 12.3185 8.40728 12.9749C9.09491 13.6313 10.0275 14 11 14C11.9725 14 12.9051 13.6313 13.5927 12.9749C14.2804 12.3185 14.6667 11.4283 14.6667 10.5C14.6667 9.57174 14.2804 8.6815 13.5927 8.02513C12.9051 7.36875 11.9725 7 11 7Z" fill="var(--fill-0, #E0FF37)"/>
</svg>
