<svg width="78" height="78" viewBox="0 0 78 78" fill="none" xmlns="http://www.w3.org/2000/svg">
<rect width="78" height="78" fill="transparent"/>
<g id="Layer_1" transform="translate(0 25)" clip-path="url(#clip0_0_25)">
<path id="Vector" d="M59.316 0C64.3428 0 68.9295 3.45156 72.9482 10.262C75.7442 15.0026 77.521 20.0831 78 21.5266L68.4895 24.7282C65.2701 14.997 60.8728 10.1131 59.3188 10.1131C57.6395 10.1131 56.6592 11.4977 54.3644 15.949C51.922 20.6897 48.2292 27.8512 39.4484 27.9972C39.362 27.9972 39.2729 27.9972 39.1866 27.9972C30.4642 27.9972 26.5124 20.6953 23.889 15.8451C22.0148 12.3823 20.6808 10.1103 19.2995 10.1103H19.2856C17.8374 10.1272 13.9079 13.0002 9.40746 23.7593C9.22087 24.2086 9.08719 24.5091 9.02314 24.6383L0.0529135 20.1168L0 20.2263C0.0362039 20.142 0.0919023 20.0072 0.167095 19.8331C5.63668 6.75707 12.0281 0.0842528 19.1686 0C19.2187 0 19.2689 0 19.319 0C26.7352 0 30.1718 6.35547 32.6894 11.0034C35.2961 15.8227 36.7247 17.9318 39.2841 17.8869C41.7014 17.8475 42.8905 16.2833 45.4666 11.2871C47.9173 6.52116 51.2815 0 59.316 0Z" fill="url(#paint0_linear_0_25)"/>
</g>
<defs>
<linearGradient id="paint0_linear_0_25" x1="0" y1="14" x2="78" y2="14" gradientUnits="userSpaceOnUse">
<stop stop-color="#6655D6"/>
<stop offset="0.23" stop-color="#FFABB6"/>
<stop offset="0.56" stop-color="#F6E2A2"/>
<stop offset="0.82" stop-color="#BDCCD4"/>
<stop offset="1" stop-color="#6655D6"/>
</linearGradient>
<clipPath id="clip0_0_25">
<rect width="78" height="28" fill="white"/>
</clipPath>
</defs>
</svg>
