<svg preserveAspectRatio="none" width="100%" height="100%" overflow="visible" style="display: block;" viewBox="0 0 22 22" fill="none" xmlns="http://www.w3.org/2000/svg">
<path id="Vector" d="M11 0C4.95 0 0 4.95 0 11C0 17.05 4.95 22 11 22C17.05 22 22 17.05 22 11C22 4.95 17.05 0 11 0ZM15.3368 16.5C15.1351 16.5 15.0343 16.3992 14.8326 16.2983C13.3201 15.3899 11.4043 14.8867 9.38758 14.8867C8.27842 14.8867 7.06842 15.0883 6.06008 15.29C5.85842 15.29 5.65675 15.3908 5.55592 15.3908C5.15258 15.3908 4.85008 15.0883 4.85008 14.685C4.85008 14.2817 5.05175 13.9792 5.45508 13.9792C6.76592 13.6767 8.07767 13.475 9.48933 13.475C11.8085 13.475 13.926 14.08 15.741 15.0883C15.9427 15.29 16.1443 15.3908 16.1443 15.7942C15.9408 16.2983 15.6383 16.5 15.3368 16.5ZM16.445 13.6776C16.2433 13.6776 16.0417 13.5768 15.84 13.4759C14.1258 12.3668 11.7049 11.7618 9.08417 11.7618C7.77333 11.7618 6.56242 11.9634 5.65583 12.1651C5.45417 12.2659 5.35333 12.2659 5.15167 12.2659C4.6475 12.2659 4.34408 11.8626 4.34408 11.4583C4.34408 10.9542 4.54575 10.7525 5.04992 10.5499C6.25992 10.2474 7.47083 9.94492 9.185 9.94492C12.0083 9.94492 14.63 10.6508 16.8493 11.9616C17.1518 12.1633 17.3534 12.4658 17.3534 12.7692C17.2517 13.2733 16.9501 13.6776 16.445 13.6776ZM17.7558 10.45C17.5542 10.45 17.4533 10.3492 17.1508 10.2483C15.1342 9.13917 12.21 8.43333 9.38667 8.43333C7.975 8.43333 6.4625 8.635 5.15075 8.9375C4.94908 8.9375 4.84825 9.03833 4.54575 9.03833C3.94075 9.14008 3.53742 8.635 3.53742 8.03092C3.53742 7.42683 3.83992 7.1225 4.24325 7.02258C5.8575 6.61833 7.57167 6.41667 9.38667 6.41667C12.5125 6.41667 15.7392 7.1225 18.2609 8.43333C18.5634 8.635 18.8659 8.9375 18.8659 9.44167C18.7651 10.0467 18.3608 10.45 17.7558 10.45Z" fill="var(--fill-0, #E0FF37)"/>
</svg>
