<svg preserveAspectRatio="none" width="100%" height="100%" overflow="visible" style="display: block;" viewBox="0 0 20 20" fill="none" xmlns="http://www.w3.org/2000/svg">
<path id="Vector" d="M10 0C4.5 0 0 4.5 0 10C0 15.5 4.5 20 10 20C15.5 20 20 15.5 20 10C20 4.5 15.5 0 10 0ZM13.9425 15C13.7592 15 13.6675 14.9083 13.4842 14.8167C12.1092 13.9908 10.3675 13.5333 8.53417 13.5333C7.52583 13.5333 6.42583 13.7167 5.50917 13.9C5.32583 13.9 5.1425 13.9917 5.05083 13.9917C4.68417 13.9917 4.40917 13.7167 4.40917 13.35C4.40917 12.9833 4.5925 12.7083 4.95917 12.7083C6.15083 12.4333 7.34333 12.25 8.62667 12.25C10.735 12.25 12.66 12.8 14.31 13.7167C14.4933 13.9 14.6767 13.9917 14.6767 14.3583C14.4917 14.8167 14.2167 15 13.9425 15ZM14.95 12.4342C14.7667 12.4342 14.5833 12.3425 14.4 12.2508C12.8417 11.2425 10.6408 10.6925 8.25833 10.6925C7.06667 10.6925 5.96583 10.8758 5.14167 11.0592C4.95833 11.1508 4.86667 11.1508 4.68333 11.1508C4.225 11.1508 3.94917 10.7842 3.94917 10.4167C3.94917 9.95833 4.1325 9.775 4.59083 9.59083C5.69083 9.31583 6.79167 9.04083 8.35 9.04083C10.9167 9.04083 13.3 9.6825 15.3175 10.8742C15.5925 11.0575 15.7758 11.3325 15.7758 11.6083C15.6833 12.0667 15.4092 12.4342 14.95 12.4342ZM16.1417 9.5C15.9583 9.5 15.8667 9.40833 15.5917 9.31667C13.7583 8.30833 11.1 7.66667 8.53333 7.66667C7.25 7.66667 5.875 7.85 4.6825 8.125C4.49917 8.125 4.4075 8.21667 4.1325 8.21667C3.5825 8.30917 3.21583 7.85 3.21583 7.30083C3.21583 6.75167 3.49083 6.475 3.8575 6.38417C5.325 6.01667 6.88333 5.83333 8.53333 5.83333C11.375 5.83333 14.3083 6.475 16.6008 7.66667C16.8758 7.85 17.1508 8.125 17.1508 8.58333C17.0592 9.13333 16.6917 9.5 16.1417 9.5Z" fill="var(--fill-0, #5B2070)"/>
</svg>
