<svg preserveAspectRatio="none" width="100%" height="100%" overflow="visible" style="display: block;" viewBox="0 0 22 23.8333" fill="none" xmlns="http://www.w3.org/2000/svg">
<path id="Vector" d="M11 0C4.92525 0 0 5.33569 0 11.9167C0 14.1522 0.579646 16.2365 1.56836 18.0243L0.0984701 23.8333L5.5752 22.2759C7.17691 23.2624 9.02595 23.8333 11 23.8333C17.0748 23.8333 22 18.4976 22 11.9167C22 5.33569 17.0748 0 11 0ZM7.23486 6.35788C7.41361 6.35788 7.59728 6.3567 7.75586 6.36564C7.95203 6.37061 8.16554 6.38617 8.36995 6.87575C8.61287 7.45768 9.1418 8.91755 9.20964 9.06551C9.27747 9.21348 9.32554 9.38779 9.23112 9.58144C9.14129 9.78005 9.09457 9.90025 8.96257 10.076C8.82598 10.2468 8.67632 10.459 8.55257 10.5881C8.41599 10.736 8.27495 10.8983 8.43262 11.1932C8.59028 11.4881 9.13785 12.455 9.94726 13.2356C10.9877 14.2425 11.8655 14.552 12.1387 14.6999C12.4118 14.8479 12.57 14.8248 12.7277 14.6262C12.89 14.4326 13.4091 13.7681 13.5924 13.4722C13.7712 13.1763 13.9537 13.2275 14.2012 13.3248C14.4523 13.4221 15.7918 14.1369 16.0649 14.2849C16.3381 14.4328 16.5172 14.5061 16.5859 14.6262C16.6565 14.7504 16.6566 15.3413 16.4302 16.0305C16.2038 16.7187 15.0919 17.3842 14.5933 17.4308C14.09 17.4815 13.6203 17.6759 11.3223 16.6957C8.55027 15.513 6.80211 12.4372 6.66553 12.2386C6.52894 12.045 5.5555 10.6395 5.5555 9.18964C5.5555 7.73482 6.2596 7.02233 6.50619 6.7264C6.75735 6.43047 7.05153 6.35788 7.23486 6.35788Z" fill="var(--fill-0, #3AD502)"/>
</svg>
