<svg width="24" height="17" viewBox="0 0 24 17" fill="none" xmlns="http://www.w3.org/2000/svg">
<path fill-rule="evenodd" clip-rule="evenodd" d="M23.5 2.66C23.22 1.61 22.4 0.78 21.36 0.5C19.48 0 12 0 12 0C12 0 4.52 0 2.64 0.5C1.6 0.78 0.78 1.61 0.5 2.66C0 4.55 0 8.5 0 8.5C0 8.5 0 12.45 0.5 14.34C0.78 15.39 1.6 16.22 2.64 16.5C4.52 17 12 17 12 17C12 17 19.48 17 21.36 16.5C22.4 16.22 23.22 15.39 23.5 14.34C24 12.45 24 8.5 24 8.5C24 8.5 24 4.55 23.5 2.66ZM9.6 12.14V4.86L15.85 8.5L9.6 12.14Z" fill="#5B2070"/>
</svg>
